<?xml version="1.0" encoding="UTF-8"?>
<svg version="1.1" xmlns="http://www.w3.org/2000/svg" width="1024" height="1024">
<path d="M0 0 C9.42653119 -0.09984673 18.84749094 -0.06518677 28.27392578 0.04150391 C29.77971191 0.05238037 29.77971191 0.05238037 31.31591797 0.06347656 C55.9537276 0.3233319 80.45087079 5.05411634 104.35595703 10.70947266 C108.2988161 11.63646296 112.21445348 12.36871907 116.21923828 12.97119141 C122.7994727 14.0222048 129.00408327 15.93812474 135.33642578 17.97900391 C137.53509709 18.67734441 139.73431173 19.37397673 141.93408203 20.06884766 C142.9958667 20.40609863 144.05765137 20.74334961 145.15161133 21.09082031 C148.12220406 21.99530761 151.1022657 22.79022695 154.10986328 23.56103516 C158.71520229 24.79387204 162.66867647 26.50884593 166.83642578 28.79150391 C172.52971587 31.77841842 178.2504118 34.29691697 184.27392578 36.54150391 C192.23525999 39.53380879 199.76628611 43.05885128 207.29394531 47.00878906 C209.25605665 48.03218376 211.22987257 49.02898931 213.20751953 50.02197266 C225.03769249 56.03668315 236.21493799 63.0661535 247.39013672 70.21044922 C249.39907038 71.48601665 251.41888076 72.74454644 253.44677734 73.98974609 C254.45450195 74.61268555 255.46222656 75.235625 256.50048828 75.87744141 C257.41652832 76.43737793 258.33256836 76.99731445 259.27636719 77.57421875 C259.93556152 78.05842285 260.59475586 78.54262695 261.27392578 79.04150391 C261.27392578 79.70150391 261.27392578 80.36150391 261.27392578 81.04150391 C261.86302734 81.31994141 262.45212891 81.59837891 263.05908203 81.88525391 C265.13243982 82.96764175 266.85857992 84.12195162 268.71142578 85.54150391 C269.41009766 86.07646484 270.10876953 86.61142578 270.82861328 87.16259766 C271.63556641 87.78263672 272.44251953 88.40267578 273.27392578 89.04150391 C274.22525391 89.75435547 275.17658203 90.46720703 276.15673828 91.20166016 C291.0154127 102.42780852 305.15913249 114.8188587 318.27392578 128.04150391 C318.85916016 128.61513672 319.44439453 129.18876953 320.04736328 129.77978516 C324.35699094 134.01583381 328.34034161 138.45725168 332.27392578 143.04150391 C333.21613379 144.12006618 334.15888546 145.19815367 335.10205078 146.27587891 C340.50450406 152.47821831 345.59488474 158.72709436 350.34033203 165.45556641 C352.98498969 168.99246211 355.94889367 172.17409118 359.00048828 175.36181641 C365.23545668 182.71093723 369.8873082 191.30894811 374.77392578 199.58056641 C377.21540233 203.68784205 379.70388503 207.72903678 382.38330078 211.68603516 C385.01227021 215.5876104 387.34388321 219.5620348 389.52392578 223.72900391 C389.89888184 224.4410498 390.27383789 225.1530957 390.66015625 225.88671875 C395.17459729 234.59353967 399.13282898 243.55607297 403.13232422 252.50732422 C405.19638885 257.08922987 407.35220804 261.6273613 409.50830078 266.16650391 C410.09922113 267.45708409 410.68733011 268.74895233 411.27392578 270.04150391 C411.93690674 271.47175903 411.93690674 271.47175903 412.61328125 272.9309082 C416.62714661 281.88207422 419.54707038 290.96406083 422.20654297 300.39916992 C422.89596682 302.84351294 423.59937775 305.28348502 424.30517578 307.72314453 C427.08640026 317.40838854 429.55934137 327.13148306 431.79031372 336.95697021 C432.27760644 339.0573688 432.79193633 341.14937814 433.31469727 343.24121094 C435.85983949 353.50282541 437.60160125 363.74776512 438.96142578 374.22900391 C439.06820648 375.03842438 439.17498718 375.84784485 439.28500366 376.68179321 C440.96205831 389.47623159 442.1818279 402.12733461 442.27392578 415.04150391 C442.28762207 416.3212207 442.30131836 417.6009375 442.31542969 418.91943359 C442.41588458 428.96164252 442.38331543 438.99953386 442.27392578 449.04150391 C442.2666748 450.01909668 442.25942383 450.99668945 442.25195312 452.00390625 C442.11019762 464.54806732 440.54653469 476.92608028 438.96142578 489.35400391 C438.86068756 490.16043335 438.75994934 490.96686279 438.65615845 491.79772949 C437.26457469 502.80196725 435.15810815 513.32954812 432.27392578 524.04150391 C431.59707704 526.70572055 430.93577618 529.37349461 430.27392578 532.04150391 C429.9366862 533.38134766 429.59944661 534.72119141 429.26220703 536.06103516 C428.61174649 538.65844381 427.98936814 541.2580189 427.37939453 543.86572266 C424.89217655 554.33320599 421.60247142 564.44975611 418.10083008 574.61938477 C417.3008823 576.96254448 416.52793161 579.31324356 415.75830078 581.66650391 C414.35567059 585.87994397 412.77996696 589.99953573 411.08642578 594.10400391 C410.78599365 594.83224365 410.48556152 595.5604834 410.17602539 596.31079102 C407.20403568 603.39478502 403.80259609 610.22942175 400.29003906 617.05761719 C398.93182907 619.70942266 397.6006499 622.37431595 396.27148438 625.04077148 C395.60826453 626.37094442 394.94323422 627.70021625 394.27636719 629.02856445 C392.57180456 632.42477003 390.88866984 635.82931331 389.23876953 639.25244141 C386.00515718 645.92273946 382.74294228 652.18302053 378.31689453 658.15869141 C375.48255828 662.15819457 372.92769579 666.31931248 370.33642578 670.47900391 C360.40493767 686.32791342 360.40493767 686.32791342 356.27392578 691.04150391 C355.61392578 691.04150391 354.95392578 691.04150391 354.27392578 691.04150391 C354.04576172 691.57904297 353.81759766 692.11658203 353.58251953 692.67041016 C351.87423574 695.7657184 349.63820777 698.31850264 347.33642578 700.97900391 C343.84466396 704.99568878 343.84466396 704.99568878 340.91455078 709.42822266 C338.43196578 713.38262592 335.18902524 716.56030233 331.96142578 719.91650391 C326.41362062 725.71764638 326.41362062 725.71764638 321.10595703 731.73681641 C316.72695385 736.90767346 311.79209973 741.49609655 306.83642578 746.10400391 C306.28921875 746.62027344 305.74201172 747.13654297 305.17822266 747.66845703 C301.739656 750.8628651 298.19166731 753.43858422 294.27392578 756.04150391 C292.77496628 757.45804639 291.31455092 758.91667802 289.89892578 760.41650391 C286.01977245 764.3875492 282.03031232 768.13292221 277.27392578 771.04150391 C276.61392578 771.04150391 275.95392578 771.04150391 275.27392578 771.04150391 C275.27392578 771.70150391 275.27392578 772.36150391 275.27392578 773.04150391 C273.30650337 774.42245532 271.29978421 775.74779783 269.27392578 777.04150391 C267.45230861 778.40440234 265.64005293 779.77988559 263.83642578 781.16650391 C248.99256686 792.34047888 232.55077424 804.64018549 214.94970703 810.84619141 C212.62935172 811.88272969 211.03645272 812.89321308 209.03173828 814.40087891 C204.92214376 817.43557067 200.50952751 819.39736275 195.83642578 821.41650391 C194.95100098 821.80515625 194.06557617 822.19380859 193.15332031 822.59423828 C191.35930777 823.38123892 189.56407471 824.16546369 187.76757812 824.94677734 C185.6078349 825.89491604 183.46372288 826.86808727 181.32470703 827.86181641 C170.14187782 833.00819854 158.53612508 836.93314327 146.86938477 840.83129883 C144.26312981 841.7085451 141.66594914 842.60198675 139.07104492 843.51147461 C128.65432973 847.12739824 118.26083293 849.89849815 107.46142578 852.10400391 C106.65865204 852.27070587 105.8558783 852.43740784 105.02877808 852.60916138 C79.44508839 857.89361806 53.43677814 861.85459672 27.27392578 862.04150391 C26.05398926 862.0552002 24.83405273 862.06889648 23.57714844 862.08300781 C15.36649966 862.17034502 7.15935561 862.16547638 -1.05126953 862.07861328 C-3.2745096 862.05616228 -5.49784223 862.03999409 -7.72119141 862.03564453 C-47.41886201 861.89123685 -90.91040522 853.98692012 -127.71435547 839.18994141 C-130.89213389 837.97818154 -134.08791266 836.99788185 -137.35107422 836.04150391 C-142.41047892 834.52852403 -147.06142445 832.64237082 -151.81982422 830.36572266 C-155.02970997 828.90315374 -158.29378791 827.70485677 -161.60107422 826.47900391 C-169.23085721 823.57222952 -176.1518092 819.54683487 -183.14160156 815.35571289 C-187.23081333 812.92693322 -191.18603464 810.77373002 -195.64404297 809.10009766 C-201.59614027 806.83318673 -206.83335784 803.5859878 -212.22607422 800.22900391 C-213.19416016 799.63796875 -214.16224609 799.04693359 -215.15966797 798.43798828 C-223.86488719 793.08048088 -232.21619995 787.30970768 -240.28857422 781.04150391 C-240.84101807 780.61272949 -241.39346191 780.18395508 -241.96264648 779.7421875 C-243.55090875 778.50920964 -245.13851121 777.27538199 -246.72607422 776.04150391 C-247.49693359 775.45626953 -248.26779297 774.87103516 -249.06201172 774.26806641 C-254.40589846 770.19558766 -259.48293986 765.84658662 -264.5625 761.453125 C-267.82428667 758.64075184 -271.11412644 755.90631868 -274.53857422 753.29150391 C-279.11724717 749.78864697 -283.70250088 746.17922117 -287.72607422 742.04150391 C-287.72607422 741.38150391 -287.72607422 740.72150391 -287.72607422 740.04150391 C-288.31517578 739.79013672 -288.90427734 739.53876953 -289.51123047 739.27978516 C-292.00251624 737.8869499 -293.34907836 736.42064671 -295.16357422 734.22900391 C-297.09090399 731.95125054 -298.98916415 729.77841397 -301.10107422 727.66650391 C-307.86007096 720.90750717 -313.91432564 713.65241517 -319.75512695 706.10131836 C-322.87418524 702.07953529 -326.11695128 698.22697592 -329.58154297 694.49462891 C-330.72607422 693.04150391 -330.72607422 693.04150391 -330.72607422 691.04150391 C-331.38607422 691.04150391 -332.04607422 691.04150391 -332.72607422 691.04150391 C-333.64464562 689.73430615 -334.54883187 688.41582636 -335.40185547 687.06494141 C-337.02224031 684.58895512 -338.77735262 682.2318234 -340.53857422 679.85400391 C-344.52307541 674.39457686 -348.15761338 668.77860253 -351.72607422 663.04150391 C-352.55348812 661.72985715 -353.38166188 660.41868952 -354.21044922 659.10791016 C-365.70074407 640.90054043 -365.70074407 640.90054043 -368.07373047 634.28369141 C-369.67222002 629.94028542 -371.87606792 626.13870395 -374.22607422 622.16650391 C-385.03244238 603.20975679 -392.24354342 582.62836125 -398.81396484 561.89404297 C-399.5652626 559.54442762 -400.34284111 557.20894948 -401.14794922 554.87744141 C-412.50108224 521.03920726 -418.65482645 482.70101395 -418.72607422 447.04150391 C-418.74516841 445.11851772 -418.76430091 443.19553183 -418.78407288 441.27255249 C-418.8711536 432.19410635 -418.82618327 423.11962818 -418.72607422 414.04150391 C-418.71882324 413.04183594 -418.71157227 412.04216797 -418.70410156 411.01220703 C-418.41938026 384.5862097 -414.01376147 357.65466104 -407.72607422 332.04150391 C-407.38214202 330.5691936 -407.03962932 329.09655076 -406.69873047 327.62353516 C-405.02731594 320.52960531 -403.02248689 313.60453042 -400.63427734 306.71704102 C-399.13794847 302.3849456 -397.90913431 298.03035802 -396.72607422 293.60400391 C-390.95627685 273.20730686 -382.00808412 253.38960844 -371.51123047 235.03759766 C-368.68873358 230.08004815 -366.28038089 224.97858516 -363.91357422 219.79150391 C-360.79306772 213.00565159 -357.34855023 206.94476672 -352.72607422 201.04150391 C-349.75848973 197.1166341 -347.28306436 193.24267179 -345.03857422 188.85400391 C-342.08086696 183.30355069 -338.33638853 178.68469307 -334.23779297 173.94775391 C-331.98074238 171.33617437 -329.8075121 168.68353234 -327.66357422 165.97900391 C-320.78259388 157.35025456 -313.8052322 148.92821586 -306.30419922 140.83447266 C-302.20016057 136.38843078 -298.15635872 131.90881978 -294.47607422 127.10400391 C-291.44232395 123.43414471 -287.65282635 120.68053484 -283.94482422 117.72509766 C-280.23933437 114.70225883 -276.81101454 111.40139967 -273.35107422 108.10400391 C-267.78277426 102.82228691 -262.05347163 98.05298122 -255.90185547 93.47119141 C-253.14178644 91.35955188 -250.52177663 89.17507561 -247.90722656 86.89160156 C-237.71416369 77.99611713 -226.36153271 71.34028406 -214.6940918 64.56518555 C-211.08797679 62.46487555 -207.57824493 60.32110981 -204.16357422 57.91650391 C-198.42713611 53.98925013 -192.0890963 51.11972388 -185.85205078 48.08691406 C-183.75420368 47.05533605 -181.67219428 45.99734561 -179.59326172 44.92822266 C-158.36899079 34.04150391 -158.36899079 34.04150391 -151.72607422 34.04150391 C-151.39607422 33.05150391 -151.06607422 32.06150391 -150.72607422 31.04150391 C-148.34388097 29.92792084 -146.07051936 29.01463157 -143.59716797 28.15478516 C-142.87556992 27.89514481 -142.15397186 27.63550446 -141.4105072 27.36799622 C-134.25823311 24.81923676 -127.05299569 22.43783458 -119.78857422 20.22900391 C-118.75867874 19.91559555 -118.75867874 19.91559555 -117.70797729 19.59585571 C-79.6136997 8.1106895 -39.82903362 0.44364669 0 0 Z " fill="#021021" transform="translate(499.72607421875,80.95849609375)"/>
<path d="M0 0 C0.76070801 0.34305176 1.52141602 0.68610352 2.30517578 1.03955078 C6.5632084 2.97318123 10.79206063 4.95978697 15 7 C15 7.66 15 8.32 15 9 C15.99 9 16.98 9 18 9 C18 9.66 18 10.32 18 11 C18.99 11 19.98 11 21 11 C21 11.66 21 12.32 21 13 C22.29164063 13.35384766 22.29164063 13.35384766 23.609375 13.71484375 C27.34820019 15.1319791 30.16560979 17.09096146 33.25 19.5625 C33.81428711 20.00650146 34.37857422 20.45050293 34.95996094 20.90795898 C40.17506597 25.05365794 45.15665266 29.42527529 50 34 C50.73605469 34.68320312 51.47210937 35.36640625 52.23046875 36.0703125 C58.8884149 42.45722721 64.47984046 49.63286979 70 57 C70.47501953 57.62100586 70.95003906 58.24201172 71.43945312 58.88183594 C75 63.65176688 75 63.65176688 75 67 C75.66 67 76.32 67 77 67 C80 72.75 80 72.75 80 75 C80.66 75 81.32 75 82 75 C89.6333096 89.92122057 95.46278858 105.03451229 99.14794922 121.40625 C99.47496826 122.85257812 99.47496826 122.85257812 99.80859375 124.328125 C99.99220459 125.1830957 100.17581543 126.03806641 100.36499023 126.91894531 C100.88116278 129.19446265 100.88116278 129.19446265 103 131 C105.80254176 131.35106786 108.56134082 131.60722957 111.375 131.8125 C121.90472824 132.72422659 131.83464504 135.19354795 142 138 C142 138.66 142 139.32 142 140 C145.3 140.66 148.6 141.32 152 142 C152 142.66 152 143.32 152 144 C152.67289063 144.09410156 153.34578125 144.18820312 154.0390625 144.28515625 C184.45808226 151.62906208 209.39452686 180.96108082 225.3125 206.0625 C228.62432801 211.74125594 230.78175287 217.83199629 233 224 C233.5194018 225.31306717 234.04001062 226.62565837 234.5625 227.9375 C236.76828106 233.82793805 238.31417515 239.94604598 240 246 C240.34675781 247.16015625 240.69351563 248.3203125 241.05078125 249.515625 C245.45135555 265.66917346 244.87912206 283.49057048 243 300 C242.34 300 241.68 300 241 300 C240.9575415 300.61093506 240.91508301 301.22187012 240.87133789 301.85131836 C240.36137544 308.01154688 239.25038424 313.65982468 237.4375 319.5625 C237.17718994 320.41948486 236.91687988 321.27646973 236.64868164 322.15942383 C232.87877344 334.08554217 227.27894184 345.20806872 221 356 C220.34 356 219.68 356 219 356 C219 356.99 219 357.98 219 359 C217.92327733 360.14618864 216.83076478 361.2797928 215.68359375 362.35546875 C213.55344812 364.43619105 211.60174579 366.64820432 209.625 368.875 C206.39658936 372.49017531 203.10073376 375.97485078 199.60546875 379.33203125 C197.87269373 381.0657686 197.87269373 381.0657686 196.125 383.484375 C193.8711394 386.15254821 191.79420587 387.64331335 188.8125 389.4375 C187.843125 390.03175781 186.87375 390.62601563 185.875 391.23828125 C184.451875 392.11033203 184.451875 392.11033203 183 393 C181.43172438 394.03295077 179.86873709 395.07399961 178.3125 396.125 C177.22775391 396.84623047 177.22775391 396.84623047 176.12109375 397.58203125 C174.70936665 398.52578252 173.3055925 399.48154239 171.91015625 400.44921875 C167.52344267 403.38772746 164.28866739 404.66945829 159 405 C159 405.66 159 406.32 159 407 C142.57576723 413.79623425 125.43391005 418.20057928 107.56445312 418.11352539 C106.36301163 418.11374443 106.36301163 418.11374443 105.13729858 418.1139679 C102.51858711 418.1132773 99.89994888 418.10552529 97.28125 418.09765625 C95.45422403 418.09578903 93.62719755 418.09436656 91.8001709 418.09336853 C87.01296585 418.08956726 82.22579159 418.07975758 77.43859863 418.06866455 C72.54500749 418.05839884 67.65141133 418.05385989 62.7578125 418.04882812 C53.17186154 418.03813299 43.58593334 418.02108553 34 418 C34 416 34 416 36.125 413.75 C37.58466594 412.3537978 39.0451489 410.95819974 40.52734375 409.5859375 C43.64918662 406.61502342 45.87770563 403.79062306 47.9296875 399.9453125 C49.2302876 397.58144808 50.65640619 395.3256953 52.125 393.0625 C52.62257813 392.29035156 53.12015625 391.51820313 53.6328125 390.72265625 C54.30957031 389.86994141 54.30957031 389.86994141 55 389 C55.66 389 56.32 389 57 389 C57.28875 388.030625 57.5775 387.06125 57.875 386.0625 C59 383 59 383 61 382 C62.38620235 381.9256517 63.77602097 381.91345825 65.1640625 381.93408203 C66.02676758 381.94384064 66.88947266 381.95359924 67.77832031 381.96365356 C68.71772461 381.97822601 69.65712891 381.99279846 70.625 382.0078125 C72.63280709 382.0253692 74.64061998 382.04227344 76.6484375 382.05859375 C79.79866892 382.08919267 82.94860358 382.12423059 86.09863281 382.17138672 C98.17756719 382.3426236 109.64656131 382.02442889 121.515625 379.65185547 C125 379 125 379 129 379 C129 378.34 129 377.68 129 377 C130.74023438 376.47212891 130.74023438 376.47212891 132.515625 375.93359375 C143.16332439 372.60625906 152.95703666 369.06713667 161.63671875 361.7890625 C164 360 164 360 167 360 C167 359.34 167 358.68 167 358 C168.97290587 355.65130253 170.00306862 354.99897713 173 354 C175.11291842 351.76040494 175.11291842 351.76040494 177.25 349 C178.04019531 348.01386719 178.83039062 347.02773438 179.64453125 346.01171875 C182.3376203 342.56831633 184.98766899 339.0946596 187.58984375 335.58203125 C188.05519531 335.05996094 188.52054688 334.53789063 189 334 C189.66 334 190.32 334 191 334 C191 333.01 191 332.02 191 331 C191.66 331 192.32 331 193 331 C193.25910156 330.34902344 193.51820313 329.69804688 193.78515625 329.02734375 C194.44180786 327.39099328 195.10080405 325.75553585 195.77294922 324.12548828 C201.34090775 310.60788257 205.26001966 297.73023356 206 283 C206.04125 282.31292969 206.0825 281.62585938 206.125 280.91796875 C206.9919279 252.58026318 195.62136321 226.44567083 176.6875 205.71484375 C173.61992785 202.59756557 170.38881657 199.76292865 167 197 C166.02933594 196.20335937 165.05867187 195.40671875 164.05859375 194.5859375 C140.43176199 175.57301453 113.94740996 170.07947688 84.22949219 171.28564453 C73.79785725 171.55601381 73.79785725 171.55601381 70.19140625 168.7578125 C68.14589237 166.18360073 67.18573435 164.9377408 66.75 161.75 C66.61851562 160.88117188 66.48703125 160.01234375 66.3515625 159.1171875 C66.0890832 156.78987104 65.83527954 154.46157308 65.5859375 152.1328125 C64.03096528 137.65181713 61.2673218 124.27878471 55 111 C54.55068115 110.04794678 54.55068115 110.04794678 54.09228516 109.07666016 C50.54051353 101.61351111 46.95973686 94.37102676 42.03125 87.69921875 C41 86 41 86 41 83 C40.34 83 39.68 83 39 83 C39 82.01 39 81.02 39 80 C38.360625 79.7525 37.72125 79.505 37.0625 79.25 C34.455699 77.67012061 34.70804922 76.83219689 34 74 C33.17822266 73.62488281 33.17822266 73.62488281 32.33984375 73.2421875 C29.00593301 71.47226493 26.64978066 68.81887275 24.0625 66.125 C21.18047248 63.1450923 18.38956513 60.30552055 15.12109375 57.7421875 C14.42113281 57.16726563 13.72117187 56.59234375 13 56 C13 55.34 13 54.68 13 54 C12.43667969 53.9071875 11.87335938 53.814375 11.29296875 53.71875 C8.41907477 52.81790419 6.67493971 51.36918307 4.3125 49.5 C-2.38930348 44.48719551 -9.64673226 40.72768648 -17.1015625 36.9597168 C-18.84141113 36.08017141 -20.57162692 35.18163805 -22.30078125 34.28125 C-25.22009616 32.89552599 -27.80392806 32.38048475 -31 32 C-31 31.34 -31 30.68 -31 30 C-37.13639872 28.56395807 -43.27223775 27.39757102 -49.5 26.4375 C-50.29019531 26.31181641 -51.08039063 26.18613281 -51.89453125 26.05664062 C-73.63147692 22.65913111 -96.15890649 22.42753261 -117.27734375 29.1953125 C-120 30 -120 30 -123 30 C-123 30.66 -123 31.32 -123 32 C-124.65 32 -126.3 32 -128 32 C-128 32.66 -128 33.32 -128 34 C-129.175625 34.33 -130.35125 34.66 -131.5625 35 C-141.61201388 38.36571397 -151.20681576 43.79610875 -159.265625 50.65234375 C-161 52 -161 52 -164 53 C-164.66 53.99 -165.32 54.98 -166 56 C-166.99 56 -167.98 56 -169 56 C-169.33 56.99 -169.66 57.98 -170 59 C-171.1091712 60.17639369 -172.22811267 61.34536471 -173.3984375 62.4609375 C-174.63588424 63.65009364 -175.84397458 64.86984353 -177.0390625 66.1015625 C-177.74804688 66.83117187 -178.45703125 67.56078125 -179.1875 68.3125 C-179.86167969 69.00988281 -180.53585937 69.70726562 -181.23046875 70.42578125 C-183 72 -183 72 -185 72 C-185.2475 72.7425 -185.495 73.485 -185.75 74.25 C-187 77 -187 77 -188.8125 78.75 C-191.36505229 81.37548236 -192.80822029 84.04189073 -194.515625 87.26171875 C-195.92481982 89.86131236 -197.43042217 92.38825383 -198.9519043 94.9230957 C-203.3660168 102.35398111 -206.38169429 109.76301252 -209 118 C-209.33 118.99 -209.66 119.98 -210 121 C-210.66 121 -211.32 121 -212 121 C-212 123.31 -212 125.62 -212 128 C-212.66 128 -213.32 128 -214 128 C-214.11275269 129.23302856 -214.11275269 129.23302856 -214.2277832 130.4909668 C-214.57649006 134.22447598 -214.94428287 137.95586666 -215.3125 141.6875 C-215.43044922 142.98107422 -215.54839844 144.27464844 -215.66992188 145.60742188 C-215.79560547 146.85458984 -215.92128906 148.10175781 -216.05078125 149.38671875 C-216.16075439 150.53358154 -216.27072754 151.68044434 -216.3840332 152.86206055 C-217.30549091 157.55627214 -218.62501242 160.0425636 -222.57666016 162.79418945 C-227.08506563 164.38219506 -231.03130328 164.37568133 -235.7734375 164.29296875 C-236.6971817 164.28872391 -237.6209259 164.28447906 -238.57266235 164.28010559 C-241.5070783 164.26338673 -244.44079356 164.22574716 -247.375 164.1875 C-249.37108379 164.17244438 -251.36717841 164.15875751 -253.36328125 164.14648438 C-258.24245522 164.11350545 -263.12110903 164.06177014 -268 164 C-268 164.66 -268 165.32 -268 166 C-269.61455078 166.34611328 -269.61455078 166.34611328 -271.26171875 166.69921875 C-302.30401578 173.54273976 -325.93212205 189.5652298 -343.15893555 216.44873047 C-349.56683176 226.85680519 -353.58714503 238.01562099 -356 250 C-356.20496094 250.96679688 -356.40992188 251.93359375 -356.62109375 252.9296875 C-361.90341778 281.56352674 -355.09700116 308.93908026 -339.046875 332.91796875 C-334.1480617 339.78537925 -328.60966388 345.63728521 -322.52124023 351.45654297 C-320.98140639 352.93771446 -319.48627853 354.465095 -318 356 C-318 356.66 -318 357.32 -318 358 C-316.68 358.33 -315.36 358.66 -314 359 C-314 359.66 -314 360.32 -314 361 C-313.40993164 361.12455566 -312.81986328 361.24911133 -312.21191406 361.37744141 C-308.04942701 362.54900233 -304.47271098 365.28289284 -300.83984375 367.5859375 C-296.36192747 370.3584152 -291.98313176 372.28358795 -287 374 C-287 374.66 -287 375.32 -287 376 C-284.48135686 376.63505568 -281.96055826 377.25791203 -279.4375 377.875 C-278.40979492 378.13603516 -278.40979492 378.13603516 -277.36132812 378.40234375 C-274.91679574 378.9942933 -272.46702086 379.50973599 -270 380 C-269.0212793 380.194729 -268.04255859 380.38945801 -267.03417969 380.59008789 C-258.60030659 381.98583449 -250.42815383 382.08806179 -241.8984375 381.94921875 C-240.72473099 381.93127258 -239.55102448 381.91332642 -238.3417511 381.89483643 C-233.43524979 381.81215924 -228.52979485 381.72004955 -223.62451172 381.58178711 C-220.00730502 381.48522387 -216.39159372 381.43256787 -212.7734375 381.38671875 C-211.11095474 381.32311409 -211.11095474 381.32311409 -209.41488647 381.25822449 C-201.94937554 381.20771738 -201.94937554 381.20771738 -199.23223877 383.47525024 C-197.92310875 385.26915399 -196.94511107 386.99391713 -196 389 C-193.98362897 392.64803848 -192.01067998 396.10933879 -189.25 399.25 C-187 402 -187 402 -187 405 C-186.11828125 405.39058594 -186.11828125 405.39058594 -185.21875 405.7890625 C-182.86313979 407.07469483 -181.35362255 408.44554744 -179.5 410.375 C-178.9328125 410.96023438 -178.365625 411.54546875 -177.78125 412.1484375 C-177.1934375 412.75945312 -176.605625 413.37046875 -176 414 C-174.66805355 415.33471877 -173.33488542 416.66822057 -172 418 C-183.79751189 418.06998995 -195.59497312 418.12305724 -207.39265156 418.15543652 C-212.87276436 418.17098908 -218.35273351 418.19203342 -223.83276367 418.22631836 C-229.1366584 418.25928778 -234.44041632 418.27693091 -239.74440575 418.28463173 C-241.75226172 418.29010865 -243.76011155 418.30080001 -245.7679081 418.31719017 C-262.11447249 418.44513464 -277.99896305 417.21314812 -293.75 412.5 C-294.46414063 412.30019531 -295.17828125 412.10039063 -295.9140625 411.89453125 C-300.45047482 410.590105 -304.69640205 408.93774567 -309 407 C-309 406.34 -309 405.68 -309 405 C-310.32 405 -311.64 405 -313 405 C-313 404.34 -313 403.68 -313 403 C-313.88300781 402.89816406 -314.76601563 402.79632812 -315.67578125 402.69140625 C-319.18581302 401.96135264 -321.2192138 400.90887314 -324.1875 398.9375 C-325.60482422 397.99970703 -325.60482422 397.99970703 -327.05078125 397.04296875 C-330.91761912 394.36435126 -334.72233662 391.61019655 -338.4921875 388.796875 C-340.96283138 386.96378302 -340.96283138 386.96378302 -343.61328125 385.49609375 C-346.04347241 383.9727497 -347.50686302 382.52138097 -349.3125 380.3125 C-351.65898208 377.45771197 -354.14682767 374.86640314 -356.79296875 372.29296875 C-360.96113613 368.15074731 -364.53074367 363.73571665 -368 359 C-368.90564697 357.76540039 -368.90564697 357.76540039 -369.82958984 356.50585938 C-391.65204675 326.06572889 -398.26987764 286.0421213 -393.23071289 249.32763672 C-392.63421476 245.84362908 -391.864214 242.42657357 -391 239 C-390.80132324 238.17677246 -390.60264648 237.35354492 -390.39794922 236.50537109 C-386.27430016 219.74204269 -379.53043075 204.96056605 -371 190 C-370.34 190 -369.68 190 -369 190 C-369 189.01 -369 188.02 -369 187 C-367.8739528 185.83983015 -366.73799044 184.68792447 -365.55859375 183.58203125 C-362.37275795 180.34828814 -359.75815789 176.59759725 -357 173 C-355.38632536 170.92467042 -353.75826872 168.95921372 -352 167 C-351.34 167 -350.68 167 -350 167 C-349.79375 166.443125 -349.5875 165.88625 -349.375 165.3125 C-343.38426949 155.2371805 -326.34750953 145.61837996 -316 141 C-315.34 141 -314.68 141 -314 141 C-314 140.34 -314 139.68 -314 139 C-292.72585285 129.88677219 -274.13302641 126.31258782 -251 125 C-249.33807432 120.07797971 -247.72190093 115.14840591 -246.21166992 110.17773438 C-243.81457767 102.30114659 -241.07501043 94.64172805 -238 87 C-237.34 87 -236.68 87 -236 87 C-235.58814453 85.69095703 -235.58814453 85.69095703 -235.16796875 84.35546875 C-225.55299057 56.73250469 -199.54145277 26.13770534 -173.80078125 12.27734375 C-171 11 -171 11 -169 11 C-168.67 10.01 -168.34 9.02 -168 8 C-165.72187987 6.63009043 -163.51574052 5.45319489 -161.125 4.3125 C-160.41174561 3.96727295 -159.69849121 3.6220459 -158.96362305 3.26635742 C-156.65013396 2.16029789 -154.32688219 1.07757207 -152 0 C-151.2476709 -0.35320312 -150.4953418 -0.70640625 -149.72021484 -1.0703125 C-103.18562812 -22.68173097 -46.3845983 -20.98709678 0 0 Z " fill="#072D58" transform="translate(577,272)"/>
<path d="M0 0 C4.65430915 1.45662638 7.7704163 4.14944828 11.25 7.4375 C12.10706543 8.24102905 12.10706543 8.24102905 12.98144531 9.06079102 C18.15569565 13.99872441 22.71704844 19.26828664 27 25 C27.74894531 25.99515625 28.49789062 26.9903125 29.26953125 28.015625 C37.06343258 38.79696721 42.86459594 50.31091291 47.375 62.8125 C47.61371826 63.46895508 47.85243652 64.12541016 48.09838867 64.80175781 C51.60827101 75.03309656 52.34177209 85.1145794 52.3125 95.875 C52.32861328 97.05191406 52.34472656 98.22882813 52.36132812 99.44140625 C52.36586163 107.68331342 51.13575334 115.05700898 49 123 C48.58226585 124.72890909 48.16541813 126.45803296 47.75 128.1875 C46.40162503 133.05429089 44.60996754 137.68759813 42.75 142.375 C32.576917 168.18347985 22.91528726 195.77782559 34 223 C35.64326753 226.24212242 37.67129801 228.67129801 40.25 231.25 C40.8275 231.8275 41.405 232.405 42 233 C42 233.66 42 234.32 42 235 C47.79531162 236.93177054 55.160852 237.042837 60.9375 234.875 C67.4235654 230.90393955 70.77951873 225.03773121 72.55078125 217.7265625 C74.47103974 206.07142837 72.66291217 195.55252439 70 184.1875 C66.0707503 167.19221562 63.71967845 151.24417716 72.9765625 135.67578125 C74.88930671 132.68146713 76.76955786 129.76632759 79 127 C79.66 127 80.32 127 81 127 C81.33 126.01 81.66 125.02 82 124 C83.62332967 122.61423077 85.28724465 121.27358732 87 120 C87.66 120.33 88.32 120.66 89 121 C88.566875 122.43279297 88.566875 122.43279297 88.125 123.89453125 C82.63303535 142.70701542 85.66206806 157.98178213 94.94921875 175.06591797 C95.96317761 176.93222422 96.953589 178.80911973 97.9375 180.69140625 C100.21396219 185.00392837 102.46016276 189.20555867 105.203125 193.2421875 C107 196 107 196 107 198 C107.66 198 108.32 198 109 198 C109 198.99 109 199.98 109 201 C109.66 201 110.32 201 111 201 C126.42790541 232.36713569 133.41896382 261.42111104 122.29296875 295.56640625 C120.71965185 299.7444895 118.98074819 303.81535875 117.125 307.875 C116.65187378 308.92772095 116.65187378 308.92772095 116.16918945 310.00170898 C113.77866645 315.04104414 110.73855253 318.89222359 107 323 C105.7613411 324.5340505 104.53114026 326.07499912 103.3125 327.625 C101.87720836 329.41843625 100.43953576 331.20996858 99 333 C98.18660156 334.01449219 97.37320313 335.02898437 96.53515625 336.07421875 C87.79265101 346.79557431 77.93411573 356.3025194 66.828125 364.5703125 C65.12008023 365.9060911 63.66828002 367.296096 62.1875 368.875 C60.02215729 370.97847578 58.95297024 371.6718922 56 372 C56 372.66 56 373.32 56 374 C54.07326916 375.34900938 52.08017764 376.60374238 50.0625 377.8125 C49.46493896 378.17214844 48.86737793 378.53179688 48.25170898 378.90234375 C44.36431377 381.22923568 40.43940086 383.47782165 36.4609375 385.64453125 C32.56796459 387.78875601 28.72179065 390.01489101 24.87133789 392.234375 C21.95282243 393.91031351 19.03292621 395.53970219 16 397 C18.1302949 391.06906534 21.35169408 385.6390451 24.3671875 380.125 C26.86867658 375.46246118 28.77757965 371.15361306 30 366 C30.66 366 31.32 366 32 366 C32.13277344 365.26394531 32.26554688 364.52789063 32.40234375 363.76953125 C32.57894531 362.79371094 32.75554687 361.81789063 32.9375 360.8125 C33.11152344 359.84957031 33.28554688 358.88664062 33.46484375 357.89453125 C33.79072736 356.13190529 34.13910528 354.37299582 34.52734375 352.62304688 C34.98946606 350.058459 35.11444195 347.73850234 35.09765625 345.13671875 C35.09443359 344.25048828 35.09121094 343.36425781 35.08789062 342.45117188 C35.07951172 341.53916016 35.07113281 340.62714844 35.0625 339.6875 C35.05573242 338.29047852 35.05573242 338.29047852 35.04882812 336.86523438 C35.03709234 334.57675627 35.02067363 332.28841192 35 330 C34.34 330 33.68 330 33 330 C33 327.69 33 325.38 33 323 C32.34 323 31.68 323 31 323 C30.82726562 322.36835937 30.65453125 321.73671875 30.4765625 321.0859375 C26.55988934 308.61726241 18.25173082 299.05163211 9.44140625 289.6484375 C6.18628055 286.11727714 3.16659584 282.4231555 0.16015625 278.6796875 C-1.24544265 276.93603317 -2.67422001 275.2107296 -4.12890625 273.5078125 C-15.76606704 259.68454371 -21.22525388 243.03908142 -21 225 C-20.55941184 220.28283326 -19.85126835 215.65865351 -19 211 C-18.66480531 209.00031112 -18.33089406 207.00040502 -18 205 C-29.11137891 213.20662757 -42.43851878 223.31555635 -47 237 C-47.66 237 -48.32 237 -49 237 C-49.12375 237.7425 -49.2475 238.485 -49.375 239.25 C-49.95486701 241.80141485 -50.73708739 243.7267573 -52 246 C-52.66 246 -53.32 246 -54 246 C-55.59469542 251.21386233 -57.14921547 256.43865057 -58.625 261.6875 C-58.86476563 262.53699219 -59.10453125 263.38648438 -59.3515625 264.26171875 C-62.26350384 276.55853128 -61.92833345 289.01093039 -58 301 C-57.73316406 301.81597656 -57.46632813 302.63195312 -57.19140625 303.47265625 C-53.14922382 314.52128822 -46.51103217 324.33243946 -39.9375 334 C-26.20154366 354.31046793 -26.20154366 354.31046793 -26 366 C-25.34 366 -24.68 366 -24 366 C-23.97303635 367.79158489 -23.95362083 369.58328473 -23.9375 371.375 C-23.92589844 372.37273437 -23.91429687 373.37046875 -23.90234375 374.3984375 C-24 377 -24 377 -25 379 C-28.51020766 377.82993078 -29.10517937 376.85906642 -31.25 373.9375 C-36.40527522 367.13210531 -41.39391349 361.25906821 -48.25 356.12890625 C-51.93048086 353.27967036 -55.46744777 350.27963098 -59 347.25 C-59.67160156 346.6825708 -60.34320313 346.1151416 -61.03515625 345.53051758 C-61.66292969 344.98935303 -62.29070312 344.44818848 -62.9375 343.890625 C-63.50339844 343.40625977 -64.06929688 342.92189453 -64.65234375 342.42285156 C-66 341 -66 341 -67 338 C-68.32933508 337.65106286 -69.66342756 337.32009843 -71 337 C-72.85595703 335.5480957 -72.85595703 335.5480957 -74.7578125 333.67578125 C-75.81319214 332.63719971 -75.81319214 332.63719971 -76.88989258 331.57763672 C-77.62747803 330.8301416 -78.36506348 330.08264648 -79.125 329.3125 C-79.88256592 328.54953613 -80.64013184 327.78657227 -81.4206543 327.00048828 C-88.75204413 319.47103741 -94.96616171 311.50142044 -100.07421875 302.2890625 C-101.64423888 299.60760825 -102.86938034 298.1127653 -105 296 C-117.81109454 271.08035482 -120.68782065 238.57425567 -112.63671875 211.6875 C-110.13591236 204.23386939 -107.09428477 197.00492613 -103.83447266 189.85546875 C-102.81886218 187.59723598 -101.89339134 185.30907299 -101 183 C-100.34 183 -99.68 183 -99 183 C-98.78730469 182.18144531 -98.57460938 181.36289062 -98.35546875 180.51953125 C-96.63003242 176.03936372 -94.1261016 172.54965144 -91.3125 168.6875 C-90.77447754 167.93927979 -90.23645508 167.19105957 -89.68212891 166.42016602 C-88.13135865 164.27264071 -86.56856887 162.13454732 -85 160 C-84.24847656 158.97390625 -83.49695313 157.9478125 -82.72265625 156.890625 C-79.37148974 152.44129611 -79.37148974 152.44129611 -78 151 C-77.34 151 -76.68 151 -76 151 C-75.73574219 150.40703125 -75.47148437 149.8140625 -75.19921875 149.203125 C-73.95629575 146.91970946 -72.69598354 145.52573277 -70.8125 143.75 C-66.06668688 139.14260643 -61.72563579 134.23866265 -57.6875 129 C-56.8521875 128.01 -56.8521875 128.01 -56 127 C-55.34 127 -54.68 127 -54 127 C-53.76023437 126.4225 -53.52046875 125.845 -53.2734375 125.25 C-51.74281817 122.54559284 -49.98720192 121.01819193 -47.625 119 C-36.48038978 109.35563992 -36.48038978 109.35563992 -27.125 98.0625 C-25.16626046 95.23961066 -23.26478581 93.5853364 -20.59765625 91.484375 C-17.06532054 88.2024983 -14.59292789 84.0309272 -12 80 C-11.40960938 79.1028125 -10.81921875 78.205625 -10.2109375 77.28125 C-1.43485812 63.20859407 2.19784229 48.97139215 2.1875 32.5 C2.1884668 30.90901489 2.1884668 30.90901489 2.18945312 29.28588867 C2.1409075 22.02887004 1.62760349 15.09119598 0.4375 7.92578125 C0.03415742 5.22842772 -0.0807787 2.72123251 0 0 Z " fill="#0461B1" transform="translate(497,337)"/>
<path d="M0 0 C3.97808059 1.36371146 6.67831674 3.14636167 9.8125 5.9375 C10.60269531 6.62714844 11.39289063 7.31679688 12.20703125 8.02734375 C14 10 14 10 14 13 C12.0625 12.1875 12.0625 12.1875 10 11 C9.67 10.01 9.34 9.02 9 8 C6.98491642 7.26676204 6.98491642 7.26676204 5 7 C4.97312721 8.81242052 4.95366285 10.62495233 4.9375 12.4375 C4.92589844 13.44683594 4.91429687 14.45617187 4.90234375 15.49609375 C4.71387324 17.94021067 4.71387324 17.94021067 6 19 C6.41256169 22.3591274 6.51764381 25.74599423 6.6875 29.125 C6.74744141 30.0634375 6.80738281 31.001875 6.86914062 31.96875 C7.15051975 37.47298826 6.87768787 41.80578299 5 47 C4.67 47 4.34 47 4 47 C3.96241577 45.82642944 3.96241577 45.82642944 3.92407227 44.62915039 C3.80850212 41.10675051 3.68560051 37.5846444 3.5625 34.0625 C3.52318359 32.83080078 3.48386719 31.59910156 3.44335938 30.33007812 C3.40146484 29.16025391 3.35957031 27.99042969 3.31640625 26.78515625 C3.27974854 25.70113525 3.24309082 24.61711426 3.20532227 23.50024414 C3.27635735 21.060737 3.27635735 21.060737 2 20 C1.59596515 17.58168921 1.24647914 15.18063589 0.9375 12.75 C0.84662109 12.08097656 0.75574219 11.41195313 0.66210938 10.72265625 C0.19208666 7.1250388 -0.10546293 3.62792471 0 0 Z " fill="#086DC0" transform="translate(497,337)"/>
<path d="M0 0 C1.31625194 2.63250388 0.74813658 3.80179056 0.0625 6.625 C-0.13214844 7.44226563 -0.32679688 8.25953125 -0.52734375 9.1015625 C-0.68332031 9.72804688 -0.83929687 10.35453125 -1 11 C-1.33 11 -1.66 11 -2 11 C-2 9.35 -2 7.7 -2 6 C-5.30318987 9.12463907 -7.81057337 12.0192243 -10 16 C-10.556875 16.845625 -11.11375 17.69125 -11.6875 18.5625 C-13.31606655 21.12558001 -13.31606655 21.12558001 -13 25 C-13.66 25.33 -14.32 25.66 -15 26 C-15.68931344 28.34907875 -15.68931344 28.34907875 -16.125 31.0625 C-16.29257812 31.98160156 -16.46015625 32.90070313 -16.6328125 33.84765625 C-16.75398437 34.55792969 -16.87515625 35.26820313 -17 36 C-17.33 36 -17.66 36 -18 36 C-18.93945659 23.96973644 -14.64803663 15.45851789 -8.1953125 5.53125 C-5.72071045 2.67797219 -3.45405296 1.45640979 0 0 Z " fill="#0978D0" transform="translate(582,461)"/>
<path d="M0 0 C0.66 0 1.32 0 2 0 C-0.33159768 4.85749516 -3.01171089 9.51756633 -6 14 C-6.33 14.99 -6.66 15.98 -7 17 C-7.66 17 -8.32 17 -9 17 C-9 17.66 -9 18.32 -9 19 C-9.66 19.66 -10.32 20.32 -11 21 C-12.02137457 22.65365406 -13.01612294 24.32376502 -14 26 C-14.86896992 27.44115319 -15.74429014 28.87849115 -16.625 30.3125 C-17.05039062 31.00988281 -17.47578125 31.70726562 -17.9140625 32.42578125 C-18.45160156 33.20501953 -18.45160156 33.20501953 -19 34 C-19.33 34 -19.66 34 -20 34 C-20 32.02 -20 30.04 -20 28 C-19.34 28 -18.68 28 -18 28 C-17.79117187 27.18660156 -17.58234375 26.37320313 -17.3671875 25.53515625 C-15.59844114 20.96168353 -12.99861622 17.38269253 -10.125 13.4375 C-9.33029297 12.3247168 -9.33029297 12.3247168 -8.51953125 11.18945312 C-2.60834219 2.95339194 -2.60834219 2.95339194 0 0 Z " fill="#086FC3" transform="translate(416,492)"/>
<path d="M0 0 C0.33 0 0.66 0 1 0 C1.02911321 3.0833134 1.04683682 6.16659125 1.0625 9.25 C1.07087891 10.12269531 1.07925781 10.99539063 1.08789062 11.89453125 C1.09111328 12.73886719 1.09433594 13.58320312 1.09765625 14.453125 C1.10289307 15.22817383 1.10812988 16.00322266 1.11352539 16.80175781 C1 19 1 19 0.48632812 21.02734375 C-0.04558011 23.18488318 -0.02972205 24.89740989 0.12109375 27.109375 C0.16943359 27.86347656 0.21777344 28.61757813 0.26757812 29.39453125 C0.32365234 30.17183594 0.37972656 30.94914063 0.4375 31.75 C0.51581055 32.93916016 0.51581055 32.93916016 0.59570312 34.15234375 C0.72489324 36.10193997 0.86169965 38.05102886 1 40 C-5.04008456 30.93987315 -3.46594201 15.48401973 -1.48046875 5.34765625 C-1.04154014 3.55089094 -0.53147894 1.77159647 0 0 Z " fill="#066FC7" transform="translate(479,544)"/>
<path d="M0 0 C0.66 0 1.32 0 2 0 C-0.66052694 9.01623019 -4.16708468 17.38666797 -11 24 C-13.10684799 26.58784536 -15.14957587 29.21917041 -17.1953125 31.85546875 C-19 34 -19 34 -21 35 C-20.71125 34.443125 -20.4225 33.88625 -20.125 33.3125 C-18.9586747 30.91505355 -17.9660119 28.48403061 -17 26 C-16.34 26 -15.68 26 -15 26 C-11.55088147 21.55245243 -8.71919555 16.91420883 -6 12 C-5.29199948 10.79147163 -4.58366886 9.58313658 -3.875 8.375 C-2.33796854 5.60834338 -1.07875675 2.96658108 0 0 Z " fill="#074989" transform="translate(615,636)"/>
<path d="M0 0 C-1.16889777 3.50669331 -1.61434272 3.62495134 -4.75 5.25 C-5.94689453 5.88228516 -5.94689453 5.88228516 -7.16796875 6.52734375 C-8.10253906 7.01332031 -9.03710938 7.49929688 -10 8 C-11.76071764 8.94838207 -13.52140274 9.89682976 -15.28027344 10.84863281 C-17.85023953 12.2385268 -20.42520332 13.61908122 -23 15 C-21.35442612 10.70816541 -19.32599824 6.95419701 -17 3 C-16.34 3.66 -15.68 4.32 -15 5 C-15.33 5.66 -15.66 6.32 -16 7 C-15.01257813 6.4946875 -14.02515625 5.989375 -13.0078125 5.46875 C-11.71364824 4.81228987 -10.41937155 4.15605133 -9.125 3.5 C-8.47402344 3.16613281 -7.82304688 2.83226562 -7.15234375 2.48828125 C-2.2265625 0 -2.2265625 0 0 0 Z " fill="#06407A" transform="translate(536,719)"/>
<path d="M0 0 C0 4.3217801 -2.60648948 6.21748941 -5.4375 9.1875 C-5.97793945 9.76395264 -6.51837891 10.34040527 -7.07519531 10.93432617 C-11.4732949 15.57179135 -16.0946725 19.89983989 -21 24 C-21 21 -21 21 -18.6875 18.625 C-17.800625 17.75875 -16.91375 16.8925 -16 16 C-15.505 15.13375 -15.01 14.2675 -14.5 13.375 C-12.70058344 10.52592378 -10.87998999 9.6858478 -8 8 C-6.64172029 6.35360035 -5.30745749 4.68704193 -4 3 C-1.75 1.1875 -1.75 1.1875 0 0 Z " fill="#074483" transform="translate(593,671)"/>
<path d="M0 0 C0.33 0.99 0.66 1.98 1 3 C-0.26572233 4.15147661 -1.53777906 5.29599314 -2.8125 6.4375 C-3.52019531 7.07558594 -4.22789062 7.71367187 -4.95703125 8.37109375 C-7 10 -7 10 -10 11 C-11.67067133 12.99665598 -13.33752986 14.99651034 -15 17 C-15.66 17 -16.32 17 -17 17 C-16.42361936 13.62333569 -15.41463944 12.07243253 -12.91015625 9.765625 C-12.29076172 9.19199219 -11.67136719 8.61835938 -11.03320312 8.02734375 C-10.38287109 7.44082031 -9.73253906 6.85429687 -9.0625 6.25 C-8.41603516 5.64800781 -7.76957031 5.04601562 -7.10351562 4.42578125 C-2.27128508 0 -2.27128508 0 0 0 Z " fill="#0C1420" transform="translate(227,190)"/>
<path d="M0 0 C0.99 0 1.98 0 3 0 C7 4.34285714 7 4.34285714 7 7 C7.94875 7.2475 8.8975 7.495 9.875 7.75 C13.47799311 9.19119724 13.52299048 9.65211176 15 13 C17.53442406 15.22816986 17.53442406 15.22816986 20 17 C19.67 17.99 19.34 18.98 19 20 C14.28619206 16.14324805 9.89174933 12.0281064 5.5625 7.75 C5.01819336 7.21858398 4.47388672 6.68716797 3.91308594 6.13964844 C2.56872207 4.79870752 1.27925552 3.40318996 0 2 C0 1.34 0 0.68 0 0 Z " fill="#074F92" transform="translate(409,655)"/>
<path d="M0 0 C0 4.70199311 -3.19872094 6.88841634 -6.3125 10.1875 C-7.20485352 11.16879883 -7.20485352 11.16879883 -8.11523438 12.16992188 C-8.69208984 12.78802734 -9.26894531 13.40613281 -9.86328125 14.04296875 C-10.39219971 14.61039795 -10.92111816 15.17782715 -11.46606445 15.76245117 C-13 17 -13 17 -16 17 C-14.60366893 13.81440048 -12.95442507 11.76056155 -10.4375 9.375 C-7.85984611 6.95478041 -7.85984611 6.95478041 -6 4 C-5.34 4 -4.68 4 -4 4 C-3.67 3.01 -3.34 2.02 -3 1 C-2.01 0.67 -1.02 0.34 0 0 Z " fill="#0872C9" transform="translate(447,460)"/>
<path d="M0 0 C-1.45745424 3.36335594 -3.31117854 5.54534005 -5.9140625 8.109375 C-6.67460937 8.86347656 -7.43515625 9.61757813 -8.21875 10.39453125 C-9.0128125 11.17183594 -9.806875 11.94914062 -10.625 12.75 C-11.42679687 13.54277344 -12.22859375 14.33554687 -13.0546875 15.15234375 C-15.03202846 17.10614493 -17.01388909 19.05512103 -19 21 C-19.33 20.01 -19.66 19.02 -20 18 C-17.04974274 14.99196428 -14.08850331 11.9949821 -11.125 9 C-10.28324219 8.14148438 -9.44148438 7.28296875 -8.57421875 6.3984375 C-7.76855469 5.58632813 -6.96289062 4.77421875 -6.1328125 3.9375 C-5.38918457 3.18339844 -4.64555664 2.42929687 -3.87939453 1.65234375 C-2 0 -2 0 0 0 Z " fill="#0878D1" transform="translate(470,438)"/>
<path d="M0 0 C0.99 0.495 0.99 0.495 2 1 C2.22801811 4.35312796 2.42881968 7.70737072 2.625 11.0625 C2.68945312 12.00544922 2.75390625 12.94839844 2.8203125 13.91992188 C3.12879889 19.4533965 2.89759544 23.77799117 1 29 C0.67 29 0.34 29 0 29 C0 19.43 0 9.86 0 0 Z " fill="#0578D6" transform="translate(501,355)"/>
<path d="M0 0 C0.66 0.99 1.32 1.98 2 3 C0.06925078 5.15226153 -1.86903417 7.29677351 -3.8125 9.4375 C-4.35970703 10.04916016 -4.90691406 10.66082031 -5.47070312 11.29101562 C-6.00244141 11.87431641 -6.53417969 12.45761719 -7.08203125 13.05859375 C-7.56905518 13.59798584 -8.0560791 14.13737793 -8.55786133 14.69311523 C-10 16 -10 16 -13 17 C-12.41503796 13.81150227 -11.5016539 12.1070041 -9.27734375 9.765625 C-8.73916016 9.19199219 -8.20097656 8.61835938 -7.64648438 8.02734375 C-7.08251953 7.44082031 -6.51855469 6.85429687 -5.9375 6.25 C-5.36966797 5.64800781 -4.80183594 5.04601562 -4.21679688 4.42578125 C-2.81768425 2.94436788 -1.40969053 1.4713512 0 0 Z " fill="#0F1B24" transform="translate(196,219)"/>
<path d="M0 0 C1.18577347 3.55732041 0.48462777 4.6300467 -1.05078125 7.90234375 C-2.12216967 10.26997989 -2.98379794 12.68419763 -3.875 15.125 C-5.58850631 19.48182224 -7.42028253 22.01690211 -11 25 C-9.62688759 20.53738465 -7.86654427 16.37332163 -5.90234375 12.1484375 C-5.04585062 10.10916815 -4.47331239 8.15674307 -4 6 C-3.34 6 -2.68 6 -2 6 C-1.855625 5.195625 -1.71125 4.39125 -1.5625 3.5625 C-1 1 -1 1 0 0 Z " fill="#06417E" transform="translate(531,697)"/>
<path d="M0 0 C0.33 0 0.66 0 1 0 C1.02696365 1.79158489 1.04637917 3.58328473 1.0625 5.375 C1.07410156 6.37273438 1.08570313 7.37046875 1.09765625 8.3984375 C1 11 1 11 0 13 C-4.39158329 11.5361389 -4.87947433 9.02168662 -7 5 C-5.5459375 4.5978125 -5.5459375 4.5978125 -4.0625 4.1875 C-3.051875 3.795625 -2.04125 3.40375 -1 3 C-0.67 2.01 -0.34 1.02 0 0 Z " fill="#073768" transform="translate(472,703)"/>
<path d="M0 0 C1.70228145 3.2059634 2.65984673 6.3029988 3.4921875 9.84375 C3.99783381 11.99080203 4.56014798 14.11788252 5.125 16.25 C6 20 6 20 6 24 C5.01 23.67 4.02 23.34 3 23 C0.50676714 15.53056163 -0.40517449 7.83337351 0 0 Z " fill="#0A73C9" transform="translate(564,498)"/>
<path d="M0 0 C3.97474603 0.55866246 5.98534159 2.50038774 8.875 5.1875 C9.74640625 5.99445312 10.6178125 6.80140625 11.515625 7.6328125 C14.39505408 10.37641945 17.22446515 13.15142476 20 16 C19.67 16.99 19.34 17.98 19 19 C18.45472656 18.35933594 17.90945313 17.71867188 17.34765625 17.05859375 C12.82993052 11.87672372 8.32785233 7.4034489 2.75 3.375 C1 2 1 2 0 0 Z " fill="#074684" transform="translate(445,689)"/>
<path d="M0 0 C1.32 0.33 2.64 0.66 4 1 C3.113125 1.721875 2.22625 2.44375 1.3125 3.1875 C-0.83525877 4.96129606 -2.68805423 6.72081872 -4.625 8.75 C-6.90204267 10.90719832 -7.94743703 11.66082634 -11 12 C-11 12.66 -11 13.32 -11 14 C-12.32 14.33 -13.64 14.66 -15 15 C-13.55366256 11.39588346 -11.80863332 9.88597432 -8.5625 7.8125 C-7.38880859 7.04873047 -7.38880859 7.04873047 -6.19140625 6.26953125 C-4 5 -4 5 -1 4 C-0.26676204 1.98491642 -0.26676204 1.98491642 0 0 Z " fill="#074380" transform="translate(564,697)"/>
<path d="M0 0 C0.66 0 1.32 0 2 0 C3.5412844 20.64220183 3.5412844 20.64220183 3 25 C1.66666667 26.33333333 0.33333333 27.66666667 -1 29 C-0.83628906 27.73285156 -0.67257812 26.46570313 -0.50390625 25.16015625 C0.07978908 19.90689827 0.11285949 14.71749915 0.0625 9.4375 C0.05798828 8.52419922 0.05347656 7.61089844 0.04882812 6.66992188 C0.0371874 4.44654262 0.02083851 2.22330879 0 0 Z " fill="#064E95" transform="translate(532,667)"/>
<path d="M0 0 C2.82496717 2.82496717 2.29994045 4.74798877 2.3125 8.6875 C2.24931928 14.27612194 1.76416568 18.16271006 -1 23 C-1.33 23 -1.66 23 -2 23 C-2 20.36 -2 17.72 -2 15 C-1.34 15 -0.68 15 0 15 C0 10.05 0 5.1 0 0 Z " fill="#056DC4" transform="translate(572,537)"/>
<path d="M0 0 C0.66 0 1.32 0 2 0 C0.54201725 3.40195976 -1.40354539 5.40354539 -4 8 C-4.45375 8.804375 -4.9075 9.60875 -5.375 10.4375 C-7.47561787 13.75001279 -9.91050949 15.59706294 -13 18 C-13 16.68 -13 15.36 -13 14 C-11.62391602 12.82529416 -10.23669106 11.66082009 -8.79296875 10.5703125 C-5.88942852 8.02734262 -3.771258 4.90716475 -1.515625 1.79296875 C-1.01546875 1.20128906 -0.5153125 0.60960937 0 0 Z " fill="#0875CC" transform="translate(485,418)"/>
<path d="M0 0 C0.99 0 1.98 0 3 0 C5.2265625 2.265625 5.2265625 2.265625 7.625 5.25 C8.42164063 6.22453125 9.21828125 7.1990625 10.0390625 8.203125 C11.75018577 10.64369126 12.59976206 12.1017253 13 15 C12.34 15 11.68 15 11 15 C11 14.34 11 13.68 11 13 C10.34 13 9.68 13 9 13 C8.896875 12.360625 8.79375 11.72125 8.6875 11.0625 C8.460625 10.381875 8.23375 9.70125 8 9 C7.01 8.67 6.02 8.34 5 8 C2.61877243 5.33862801 1.1344141 3.4032423 0 0 Z " fill="#086FC2" transform="translate(512,351)"/>
<path d="M0 0 C0.66 0.33 1.32 0.66 2 1 C-4.27 7.27 -10.54 13.54 -17 20 C-17 14.7770166 -12.50927629 11.58646849 -9 8 C-6.39555103 5.58764589 -3.72056273 3.27957376 -1 1 C-0.67 0.67 -0.34 0.34 0 0 Z " fill="#031D37" transform="translate(474,544)"/>
<path d="M0 0 C0.66 0 1.32 0 2 0 C1.34034961 6.86036401 -0.2362764 13.34443923 -2 20 C-2.66 19.67 -3.32 19.34 -4 19 C-3.855625 18.34 -3.71125 17.68 -3.5625 17 C-3.13192817 14.70361692 -2.82051227 12.38461047 -2.5625 10.0625 C-2.1456042 6.51888571 -1.25648951 3.35063869 0 0 Z " fill="#075095" transform="translate(622,611)"/>
<path d="M0 0 C0.99 0.33 1.98 0.66 3 1 C3.11269443 7.1105424 2.89604368 12.95170514 2 19 C1.67 19 1.34 19 1 19 C0.17648136 12.61773055 -0.12086218 6.43255401 0 0 Z " fill="#055599" transform="translate(523,520)"/>
<path d="M0 0 C0 2.64779693 -0.17195931 4.51587793 -1 7 C-1.99 7.495 -1.99 7.495 -3 8 C-3.33 8.99 -3.66 9.98 -4 11 C-4.9590625 11.2165625 -4.9590625 11.2165625 -5.9375 11.4375 C-8.20311706 11.80104993 -8.20311706 11.80104993 -9.25 14.0625 C-9.4975 14.701875 -9.745 15.34125 -10 16 C-10.66 15.67 -11.32 15.34 -12 15 C-8.04 10.05 -4.08 5.1 0 0 Z " fill="#18202F" transform="translate(171,248)"/>
<path d="M0 0 C0 3.9809949 -1.47898293 5.43796227 -3.8125 8.625 C-4.52019531 9.60726563 -5.22789062 10.58953125 -5.95703125 11.6015625 C-8 14 -8 14 -11 15 C-9.72163055 10.1534345 -8.00800748 7.55040706 -4.375 4.125 C-3.55773437 3.34382813 -2.74046875 2.56265625 -1.8984375 1.7578125 C-1.27195312 1.17773438 -0.64546875 0.59765625 0 0 Z " fill="#0875CF" transform="translate(430,477)"/>
<path d="M0 0 C0.33 0.66 0.66 1.32 1 2 C1.99 2 2.98 2 4 2 C4.99 3.485 4.99 3.485 6 5 C6.66 5.66 7.32 6.32 8 7 C7.625 9.625 7.625 9.625 7 12 C4 11 4 11 2.83203125 9.2578125 C2.49558594 8.55398438 2.15914063 7.85015625 1.8125 7.125 C1.46832031 6.42632813 1.12414062 5.72765625 0.76953125 5.0078125 C0 3 0 3 0 0 Z " fill="#064F91" transform="translate(389,624)"/>
<path d="M0 0 C0.66 0 1.32 0 2 0 C2.556875 1.155 3.11375 2.31 3.6875 3.5 C5.56082396 7.29381796 7.73941532 10.76109019 10.14453125 14.23828125 C11 16 11 16 10 19 C7 14.25 7 14.25 7 12 C6.34 12 5.68 12 5 12 C4.16180842 10.37750059 3.3295884 8.75191503 2.5 7.125 C2.0359375 6.22007812 1.571875 5.31515625 1.09375 4.3828125 C0 2 0 2 0 0 Z " fill="#0670C9" transform="translate(594,519)"/>
<path d="M0 0 C0.99 0 1.98 0 3 0 C1.44298069 4.67105792 -1.08447373 8.08705685 -4 12 C-5 10 -5 10 -4.51171875 8.125 C-4.23972656 7.42375 -3.96773438 6.7225 -3.6875 6 C-3.42324219 5.29875 -3.15898437 4.5975 -2.88671875 3.875 C-2 2 -2 2 0 0 Z " fill="#066FC4" transform="translate(493,404)"/>
<path d="M0 0 C5.64942006 5.24589005 7.46381315 11.49338405 8 19 C7.67 18.01 7.34 17.02 7 16 C6.34 16 5.68 16 5 16 C4.9175 15.113125 4.835 14.22625 4.75 13.3125 C4.23385845 9.90626213 4.23385845 9.90626213 1.9375 7.4375 C0 5 0 5 -0.25 2.1875 C-0.1675 1.465625 -0.085 0.74375 0 0 Z " fill="#064B8F" transform="translate(463,683)"/>
<path d="M0 0 C0.33 0 0.66 0 1 0 C1 5.94 1 11.88 1 18 C-1.47122359 14.29316462 -2.22330047 11.75817038 -1.66015625 7.32421875 C-1.36431641 6.01904297 -1.36431641 6.01904297 -1.0625 4.6875 C-0.86785156 3.80449219 -0.67320312 2.92148437 -0.47265625 2.01171875 C-0.31667969 1.34785156 -0.16070313 0.68398438 0 0 Z " fill="#0558A1" transform="translate(624,589)"/>
<path d="M0 0 C3.85103301 0.53675903 5.31797587 2.11600923 7.75 5.0625 C8.36359375 5.79597656 8.9771875 6.52945313 9.609375 7.28515625 C10.06828125 7.85105469 10.5271875 8.41695312 11 9 C7.25983417 9 6.54723807 8.0658409 3.8125 5.625 C3.09707031 4.99851562 2.38164062 4.37203125 1.64453125 3.7265625 C0 2 0 2 0 0 Z " fill="#121923" transform="translate(212,821)"/>
<path d="M0 0 C-0.33 0.99 -0.66 1.98 -1 3 C-5.63833893 5.20873282 -9.02952038 4.99409592 -14 4 C-14 3.34 -14 2.68 -14 2 C-12.04200486 1.66468585 -10.08359226 1.33180857 -8.125 1 C-6.48917969 0.7215625 -6.48917969 0.7215625 -4.8203125 0.4375 C-2 0 -2 0 0 0 Z " fill="#056ABF" transform="translate(560,573)"/>
<path d="M0 0 C0.66 0.33 1.32 0.66 2 1 C0.68 5.95 -0.64 10.9 -2 16 C-2.33 16 -2.66 16 -3 16 C-2.67 12.37 -2.34 8.74 -2 5 C-3.32 5.33 -4.64 5.66 -6 6 C-4 4 -2 2 0 0 Z " fill="#0C5C9C" transform="translate(584,457)"/>
<path d="M0 0 C3.83325416 1.45399296 5.28279605 3.3080115 7 7 C7.1875 9.8125 7.1875 9.8125 7 12 C4.34737821 10.67368911 3.78900251 9.14656892 2.375 6.5625 C1.92898438 5.75941406 1.48296875 4.95632813 1.0234375 4.12890625 C0 2 0 2 0 0 Z " fill="#066BBE" transform="translate(528,371)"/>
<path d="M0 0 C4.56454251 0.54339792 7.9728176 1.79463821 12 4 C10.265625 5.1171875 10.265625 5.1171875 8 6 C5.859375 5.3203125 5.859375 5.3203125 3.75 4.125 C3.04359375 3.73570313 2.3371875 3.34640625 1.609375 2.9453125 C1.07828125 2.63335937 0.5471875 2.32140625 0 2 C0 1.34 0 0.68 0 0 Z " fill="#18212A" transform="translate(695,124)"/>
<path d="M0 0 C-1.5830577 4.2742558 -4.50568404 6.26531794 -8 9 C-8 5.39222485 -7.0095568 3.93704456 -5 1 C-3 0 -3 0 0 0 Z " fill="#2F363E" transform="translate(813,819)"/>
<path d="M0 0 C3.25548753 3.02295271 5.68977058 6.20462309 8 10 C8 10.66 8 11.32 8 12 C6.68 11.34 5.36 10.68 4 10 C4 9.01 4 8.02 4 7 C3.34 7 2.68 7 2 7 C0 4 0 4 0 0 Z " fill="#074D8F" transform="translate(448,659)"/>
<path d="M0 0 C0.66 0.99 1.32 1.98 2 3 C-0.3125 5.5 -0.3125 5.5 -3 8 C-3.99 8 -4.98 8 -6 8 C-4.55746343 4.63408134 -2.66735273 2.48952921 0 0 Z " fill="#161E2B" transform="translate(196,219)"/>
<path d="M0 0 C2.04219706 1.69179328 2.91793306 2.63727666 3.51171875 5.26171875 C3.56972656 6.06222656 3.62773438 6.86273438 3.6875 7.6875 C3.75324219 8.49574219 3.81898438 9.30398438 3.88671875 10.13671875 C3.92410156 10.75160156 3.96148438 11.36648438 4 12 C3.525625 11.360625 3.05125 10.72125 2.5625 10.0625 C1.16261274 8.11706694 1.16261274 8.11706694 0 7 C-0.04092937 4.66702567 -0.04241723 2.33294775 0 0 Z " fill="#0672CB" transform="translate(581,492)"/>
<path d="M0 0 C0.66 0 1.32 0 2 0 C2.33 0.99 2.66 1.98 3 3 C-0.24509304 5.03977277 -3.40608886 6.66511872 -7 8 C-6.02133662 6.85373678 -5.04205413 5.70800212 -4.0625 4.5625 C-3.51722656 3.92441406 -2.97195312 3.28632813 -2.41015625 2.62890625 C-1.63204305 1.73008851 -0.84063472 0.84063472 0 0 Z " fill="#1A252F" transform="translate(225,190)"/>
<path d="M0 0 C1.18771723 3.42943519 0.80226223 5.37784675 -0.4375 8.75 C-0.86869141 9.94882812 -0.86869141 9.94882812 -1.30859375 11.171875 C-1.65083984 12.07679688 -1.65083984 12.07679688 -2 13 C-2.33 13 -2.66 13 -3 13 C-3 10.36 -3 7.72 -3 5 C-2.34 5 -1.68 5 -1 5 C-0.67 3.35 -0.34 1.7 0 0 Z " fill="#046BC1" transform="translate(388,543)"/>
<path d="M0 0 C2.64752004 2.57784846 4.94432065 4.91648098 7 8 C5.68 8 4.36 8 3 8 C1.25 6.25 1.25 6.25 0 4 C0 2.68 0 1.36 0 0 Z " fill="#181F2C" transform="translate(815,206)"/>
<path d="M0 0 C4.22797927 3.08290155 4.22797927 3.08290155 6 5 C6.375 7.8125 6.375 7.8125 6 10 C2.46413986 6.82679218 0.41421969 4.83256305 0 0 Z " fill="#18252E" transform="translate(833,227)"/>
<path d="M0 0 C0.66 0.99 1.32 1.98 2 3 C0.35 4.65 -1.3 6.3 -3 8 C-3.66 7.67 -4.32 7.34 -5 7 C-3.70700306 4.11562221 -2.34058637 2.12780579 0 0 Z " fill="#15222D" transform="translate(202,212)"/>
<path d="M0 0 C-1 3 -1 3 -3.25 4.6875 C-6.1364252 6.06511203 -7.85173236 6.26985151 -11 6 C-3.28571429 0 -3.28571429 0 0 0 Z " fill="#064587" transform="translate(536,719)"/>
<path d="M0 0 C0.66 0 1.32 0 2 0 C2.33 2.64 2.66 5.28 3 8 C2.01 8.66 1.02 9.32 0 10 C0 6.7 0 3.4 0 0 Z " fill="#096ABA" transform="translate(499,381)"/>
<path d="M0 0 C2.91517292 1.07401108 4.77810176 1.77810176 7 4 C7 4.99 7 5.98 7 7 C5.0625 6.1875 5.0625 6.1875 3 5 C2.67 4.01 2.34 3.02 2 2 C1.34 2 0.68 2 0 2 C0 1.34 0 0.68 0 0 Z " fill="#0871C8" transform="translate(504,343)"/>
<path d="M0 0 C4.8 3.44615385 4.8 3.44615385 5.8125 6.25 C5.874375 6.8275 5.93625 7.405 6 8 C2.63279613 6.60667426 1.0140476 5.0210714 -1 2 C-0.67 1.34 -0.34 0.68 0 0 Z " fill="#1B232C" transform="translate(789,183)"/>
<path d="M0 0 C1.485 0.99 1.485 0.99 3 2 C3.29296875 4.3828125 3.29296875 4.3828125 3.1875 7.125 C3.16042969 8.03507813 3.13335937 8.94515625 3.10546875 9.8828125 C3.07066406 10.58148437 3.03585937 11.28015625 3 12 C0.97649676 8.96474514 0.67875982 7.80573798 0.375 4.3125 C0.30023438 3.50425781 0.22546875 2.69601562 0.1484375 1.86328125 C0.09945313 1.24839844 0.05046875 0.63351562 0 0 Z " fill="#08569D" transform="translate(382,600)"/>
<path d="M0 0 C0.66 0 1.32 0 2 0 C3.91384609 3.50871784 4.04276246 4.81367786 3.125 8.8125 C2.75375 9.864375 2.3825 10.91625 2 12 C1.67 12 1.34 12 1 12 C0.67 8.04 0.34 4.08 0 0 Z " fill="#0C60A3" transform="translate(497,337)"/>
<path d="M0 0 C0.33 0.66 0.66 1.32 1 2 C0.0625 4.125 0.0625 4.125 -1 6 C-1.66 6 -2.32 6 -3 6 C-3.66 7.32 -4.32 8.64 -5 10 C-5.66 9.67 -6.32 9.34 -7 9 C-4.69 6.03 -2.38 3.06 0 0 Z " fill="#2E333F" transform="translate(166,254)"/>
<path d="M0 0 C1.32 0.66 2.64 1.32 4 2 C1.69 3.32 -0.62 4.64 -3 6 C-3 5.01 -3 4.02 -3 3 C-2.34 3.33 -1.68 3.66 -1 4 C-0.67 2.68 -0.34 1.36 0 0 Z " fill="#161D27" transform="translate(753,865)"/>
<path d="M0 0 C0.99 0 1.98 0 3 0 C3 1.65 3 3.3 3 5 C2.01 5 1.02 5 0 5 C-0.5625 3.0625 -0.5625 3.0625 -1 1 C-0.67 0.67 -0.34 0.34 0 0 Z " fill="#06417E" transform="translate(469,706)"/>
<path d="M0 0 C0.66 0 1.32 0 2 0 C2.66 2.97 3.32 5.94 4 9 C3.34 9 2.68 9 2 9 C0.14223235 5.86501708 -0.20140476 3.62528568 0 0 Z " fill="#085DA6" transform="translate(618,564)"/>
<path d="M0 0 C0.33 0 0.66 0 1 0 C1.33 3.3 1.66 6.6 2 10 C-1 7 -1 7 -1.25 3.875 C-1 1 -1 1 0 0 Z " fill="#0B60A8" transform="translate(581,484)"/>
<path d="M0 0 C0.66 0 1.32 0 2 0 C1.74438677 2.3431213 1.40729228 4.67843403 1 7 C0.01 7.495 0.01 7.495 -1 8 C-1.125 2.25 -1.125 2.25 0 0 Z " fill="#066EC5" transform="translate(496,395)"/>
</svg>
