<?xml version="1.0" encoding="UTF-8"?>
<svg version="1.1" xmlns="http://www.w3.org/2000/svg" width="1024" height="1024">
<path d="M0 0 C337.92 0 675.84 0 1024 0 C1024 337.92 1024 675.84 1024 1024 C686.08 1024 348.16 1024 0 1024 C0 686.08 0 348.16 0 0 Z " fill="#021021" transform="translate(0,0)"/>
<path d="M0 0 C1.11246094 0.35320312 2.22492188 0.70640625 3.37109375 1.0703125 C25.29591542 8.61133397 44.73155984 19.56558728 62 35 C63.43706327 36.22967723 64.87450042 37.45891783 66.3125 38.6875 C87.30681753 57.31995681 103.42690316 82.2901923 112 109 C112.27199219 109.76054687 112.54398438 110.52109375 112.82421875 111.3046875 C115.46067087 118.69791302 117.15798588 126.37948472 119 134 C119.62229492 134.05945801 120.24458984 134.11891602 120.88574219 134.18017578 C141.39098872 136.22317557 159.65452762 140.53623693 178 150 C178.98355469 150.49371094 179.96710937 150.98742187 180.98046875 151.49609375 C209.02586985 166.09236033 230.81275373 190.53432601 244 219 C244.8353125 220.794375 244.8353125 220.794375 245.6875 222.625 C247.39686681 227.02051466 248.7242453 231.46195829 250 236 C250.33257813 237.13824219 250.66515625 238.27648437 251.0078125 239.44921875 C257.61825308 262.87955813 259.44820067 290.71908061 251 314 C250.690625 315.05574219 250.38125 316.11148437 250.0625 317.19921875 C244.70939747 334.77392669 235.55648959 349.82297212 224 364 C223.25878906 364.91394531 222.51757812 365.82789063 221.75390625 366.76953125 C218.49113846 370.64279613 218.49113846 370.64279613 217 372 C216.34 372 215.68 372 215 372 C215 372.66 215 373.32 215 374 C211.55756111 377.25977886 207.75227349 380.10664108 204 383 C203.45972168 383.41910645 202.91944336 383.83821289 202.36279297 384.27001953 C190.40500124 393.45006053 177.4100169 400.45704175 163 405 C161.98292969 405.33644531 160.96585938 405.67289063 159.91796875 406.01953125 C137.57174587 412.96533045 115.06232048 412.38267107 91.93243408 412.20599365 C87.41984305 412.17488225 82.90719942 412.16151405 78.39453125 412.14648438 C69.59621244 412.11465066 60.79814572 412.06369119 52 412 C53.42161471 408.21122789 54.67784306 406.0383386 57.6875 403.3125 C64.87134026 396.37503693 69.69009416 388.04639835 74.51953125 379.37109375 C76 377 76 377 78 376 C80.91118365 375.86634909 83.80210744 375.78972772 86.71484375 375.75390625 C88.53581056 375.7208826 90.35677399 375.68767281 92.17773438 375.65429688 C95.02918295 375.60754387 97.88062778 375.5632999 100.73217773 375.52319336 C110.66384889 375.37679129 120.55035566 375.11038238 130.44140625 374.15234375 C131.20372055 374.08439102 131.96603485 374.01643829 132.75144958 373.94642639 C137.69325497 373.41310923 141.50023263 372.1052383 146 370 C147.80361725 369.5843727 149.61680755 369.20795682 151.4375 368.875 C172.53138018 363.76612016 191.48860541 346.3814865 202.75585938 328.51977539 C216.77899363 305.46631152 221.64553227 278.15571924 215.5 251.5625 C213.26475051 243.17822539 209.27589501 235.49976874 205 228 C204.64824707 227.38012207 204.29649414 226.76024414 203.93408203 226.12158203 C199.7106536 218.74675287 199.7106536 218.74675287 194.26171875 212.26171875 C193.51535156 211.51535156 192.76898437 210.76898438 192 210 C192 209.34 192 208.68 192 208 C191.34 208 190.68 208 190 208 C188.84856693 206.88345884 187.70378982 205.7595352 186.5859375 204.609375 C172.12816007 189.93793583 154.24258338 179.86596321 134 176 C133.04657715 175.81687256 132.0931543 175.63374512 131.11083984 175.44506836 C121.59385842 173.78890214 112.38410087 173.89973521 102.7578125 174.16601562 C101.56929687 174.18470703 100.38078125 174.20339844 99.15625 174.22265625 C97.56006836 174.26531616 97.56006836 174.26531616 95.93164062 174.30883789 C91.52687655 173.84481169 88.96702613 171.8780463 85.75 168.95703125 C83.20040907 164.64890551 83.24473703 160.61372481 83 155.6875 C81.06109499 129.20790681 70.52006195 103.12304258 53 83 C51.96939453 81.78763672 51.96939453 81.78763672 50.91796875 80.55078125 C33.59348809 60.66664759 13.05729841 47.22049887 -12 39 C-13.20462891 38.57074219 -13.20462891 38.57074219 -14.43359375 38.1328125 C-45.8566518 27.56769419 -83.52725211 31.66502787 -113.26953125 45.5234375 C-124.45004655 51.28268722 -145.1573085 62.314617 -151 74 C-151.66 74 -152.32 74 -153 74 C-153.37125 74.84498047 -153.37125 74.84498047 -153.75 75.70703125 C-155.20865455 78.38275068 -156.98730942 80.39806447 -159 82.6875 C-175.29913466 102.44561501 -184.47977967 127.17682584 -186.22973633 152.61889648 C-186.65727261 158.06694673 -187.62025745 161.62386476 -191.6105957 165.6081543 C-194.97178288 167.56607072 -198.13944463 167.42172428 -201.921875 167.40625 C-202.69952209 167.41708618 -203.47716919 167.42792236 -204.27838135 167.43908691 C-206.76900362 167.47329278 -209.25917434 167.48889533 -211.75 167.5 C-245.29548876 167.65348045 -272.84372421 176.99882068 -297 201 C-297.66 201.99 -298.32 202.98 -299 204 C-299.66 204 -300.32 204 -301 204 C-301.25910156 204.54914063 -301.51820313 205.09828125 -301.78515625 205.6640625 C-303.18230117 208.35053409 -304.78506812 210.8377175 -306.4375 213.375 C-321.11721589 236.33480358 -326.92424945 264.19074796 -321.46044922 290.97998047 C-319.53149414 299.41243593 -317.19244939 307.38003936 -313 315 C-311.49732697 317.73866005 -311 318.79532561 -311 322 C-310.34 322 -309.68 322 -309 322 C-307.91408387 323.58224899 -306.9075854 325.21920412 -305.9375 326.875 C-301.84144669 333.52142612 -296.92887514 339.31450651 -291.234375 344.65625 C-290 346 -290 346 -290 348 C-289.443125 348.2475 -288.88625 348.495 -288.3125 348.75 C-285.58632236 350.22360953 -283.40435105 352.04297008 -281 354 C-279.79951633 354.90632542 -278.59082806 355.80186524 -277.375 356.6875 C-276.80523437 357.10386719 -276.23546875 357.52023437 -275.6484375 357.94921875 C-273.86465921 359.18026857 -273.86465921 359.18026857 -271 360 C-271 360.66 -271 361.32 -271 362 C-269.824375 362.3403125 -269.824375 362.3403125 -268.625 362.6875 C-265.66724925 363.75840976 -263.22234185 364.9261722 -260.4765625 366.41015625 C-255.04417967 369.15215471 -249.68614545 370.53504715 -243.75 371.75 C-242.79609375 371.95753906 -241.8421875 372.16507813 -240.859375 372.37890625 C-231.2484609 374.47435379 -231.2484609 374.47435379 -221.45703125 374.98657227 C-220.39572998 374.9606752 -219.33442871 374.93477814 -218.2409668 374.90809631 C-217.10957275 374.87783859 -215.97817871 374.84758087 -214.8125 374.81640625 C-212.39847371 374.77454948 -209.98440826 374.73490327 -207.5703125 374.69726562 C-203.77725025 374.63552382 -199.98630893 374.56210037 -196.19433594 374.45141602 C-192.52503067 374.3483804 -188.85793952 374.29664317 -185.1875 374.25390625 C-183.49040894 374.18726524 -183.49040894 374.18726524 -181.7590332 374.11927795 C-174.07186189 374.09152261 -174.07186189 374.09152261 -170.97851562 376.71334839 C-169.42316155 378.74717621 -168.1793509 380.73072422 -167 383 C-166.38125 384.11375 -165.7625 385.2275 -165.125 386.375 C-164.81433594 386.93960937 -164.50367188 387.50421875 -164.18359375 388.0859375 C-159.38850372 395.84037352 -152.89789325 403.35797681 -145.5625 408.8125 C-145.046875 409.204375 -144.53125 409.59625 -144 410 C-144 410.66 -144 411.32 -144 412 C-155.91842871 412.04649459 -167.83683557 412.08195585 -179.75533676 412.10362434 C-185.29053722 412.11402805 -190.82567528 412.12812449 -196.36083984 412.15087891 C-201.71008155 412.17272951 -207.05926352 412.18459425 -212.40854645 412.18975449 C-214.44171335 412.19342841 -216.47487726 412.20060223 -218.50801849 412.21146011 C-228.85209918 412.26446742 -238.85142616 412.30149513 -249 410 C-250.13695312 409.76539063 -251.27390625 409.53078125 -252.4453125 409.2890625 C-258.05794524 407.89817684 -263.33775093 406.21103081 -268.66015625 403.94921875 C-270.80266855 403.08005266 -272.90261849 402.43846379 -275.125 401.8125 C-292.49320719 396.1255649 -307.00175959 383.36373774 -320 371 C-320.76957031 370.30648438 -321.53914063 369.61296875 -322.33203125 368.8984375 C-331.16812372 360.65141786 -338.86030438 349.94507472 -344 339 C-344.59941406 337.87078125 -344.59941406 337.87078125 -345.2109375 336.71875 C-348.88516929 329.71551625 -351.65551272 322.54456666 -354 315 C-354.39783691 313.77410156 -354.39783691 313.77410156 -354.80371094 312.5234375 C-359.22476446 298.49873129 -360.55377556 285.10698804 -360.5 270.5 C-360.49835846 269.69650116 -360.49671692 268.89300232 -360.49502563 268.06515503 C-360.44895435 259.82345593 -360.19985607 251.99578682 -358 244 C-357.28858337 240.50996135 -356.57897315 237.01967751 -355.87890625 233.52734375 C-351.13085159 214.47181771 -340.69809487 196.51507888 -329 181 C-328.34 180.01 -327.68 179.02 -327 178 C-326.34 178 -325.68 178 -325 178 C-324.7834375 177.45859375 -324.566875 176.9171875 -324.34375 176.359375 C-322.53426147 173.18224979 -320.08787766 170.79070806 -317.5 168.25 C-316.96028564 167.71777832 -316.42057129 167.18555664 -315.86450195 166.63720703 C-304.16296897 155.24419878 -290.31025511 144.92655036 -275 139 C-274.28231445 138.72027344 -273.56462891 138.44054687 -272.82519531 138.15234375 C-270.34657508 137.19261878 -267.86247499 136.24902617 -265.375 135.3125 C-264.58706055 135.01448486 -263.79912109 134.71646973 -262.98730469 134.40942383 C-248.88220403 129.23117341 -234.87085259 128.81716165 -220 129 C-219.896875 127.906875 -219.79375 126.81375 -219.6875 125.6875 C-215.15600784 90.66029036 -189.9447942 53.86591434 -163 32 C-162.2678125 31.37996094 -161.535625 30.75992188 -160.78125 30.12109375 C-143.6468709 15.90734745 -123.42671469 5.00704805 -102 -1 C-100.9584375 -1.31839844 -99.916875 -1.63679688 -98.84375 -1.96484375 C-66.33776762 -11.42043909 -32.1257429 -10.23830368 0 0 Z " fill="#072D59" transform="translate(553,286)"/>
<path d="M0 0 C3.69561111 2.07795927 6.74747982 4.3922659 9.875 7.25 C10.67679687 7.97703125 11.47859375 8.7040625 12.3046875 9.453125 C13.19414062 10.29359375 14.08359375 11.1340625 15 12 C15.54567627 12.51506104 16.09135254 13.03012207 16.65356445 13.56079102 C21.08706517 17.85442205 24.83934922 22.42909301 28.4375 27.4375 C29.27945923 28.60732422 29.27945923 28.60732422 30.13842773 29.80078125 C35.31156993 37.15760996 39.35370461 44.79583537 43 53 C43.62648438 54.40185547 43.62648438 54.40185547 44.265625 55.83203125 C56.56989461 84.98580439 51.00002208 114.53483943 39.53515625 142.87890625 C38.25957456 145.98311039 36.96664922 149.07827322 35.65112305 152.16577148 C27.32821037 171.76508662 23.95714706 193.66806741 32 214 C35.12003752 220.48007792 39.22284922 225.27068052 46 228 C51.58524957 228.78389468 55.07462787 227.36796737 60 225 C60.99 224.67 61.98 224.34 63 224 C64.02450239 221.81862203 64.02450239 221.81862203 65 219 C65.67561297 217.83323588 66.35141205 216.66657951 67.02734375 215.5 C69.5796321 210.40527322 69.68413181 205.68418 69.625 200.0625 C69.62242187 199.02343506 69.61984375 197.98437012 69.6171875 196.91381836 C69.40008783 187.86144035 67.47254696 179.60967808 65.15942383 170.89599609 C61.66600857 157.46337415 60.83866181 145.48010396 68 133 C72.22451051 126.06779137 78.19219408 120.60120413 84 115 C84.66 115.33 85.32 115.66 86 116 C85.566875 116.75216797 85.566875 116.75216797 85.125 117.51953125 C79.85056033 128.26986488 80.48052915 141.37784137 83.9375 152.625 C88.53930205 164.68848109 95.14263022 175.78877699 101.96484375 186.70703125 C107.56478934 195.76797968 112.76152453 204.90970326 116.875 214.75 C117.14900635 215.39807617 117.4230127 216.04615234 117.70532227 216.71386719 C121.93910318 227.24905892 123.51731575 237.42918022 123.44604492 248.75317383 C123.43754908 250.8006726 123.46639256 252.84535345 123.49804688 254.89257812 C123.63888057 281.3919567 110.36564121 304.831925 93 324 C92.53271484 324.52223145 92.06542969 325.04446289 91.58398438 325.58251953 C78.44742869 340.25894119 78.44742869 340.25894119 73 345 C72.34 345 71.68 345 71 345 C71 345.66 71 346.32 71 347 C69.01828498 348.75881025 67.03426129 350.38749006 64.9375 352 C64.30481201 352.48984375 63.67212402 352.9796875 63.02026367 353.484375 C25.74508698 382 25.74508698 382 15 382 C16.30577779 378.65396764 17.71985332 375.40021372 19.27734375 372.1640625 C19.70853516 371.26429688 20.13972656 370.36453125 20.58398438 369.4375 C21.03064453 368.509375 21.47730469 367.58125 21.9375 366.625 C30.18232153 349.48729237 36.45821787 330.81350124 30.15625 311.76171875 C24.62882601 298.55939186 17.03911808 288.3919721 7.23828125 278.0859375 C-9.72793445 260.12740391 -21.87507262 240.5769258 -21.234375 215.23828125 C-20.97387383 209.23745084 -19.89566251 203.68698752 -18 198 C-38.14950232 213.52502638 -53.02102075 233.56142208 -58 259 C-61.08008992 284.63941519 -50.00242828 304.41152086 -36.31640625 325.00878906 C-34.33715654 328.0026245 -32.40915387 331.02329549 -30.5 334.0625 C-29.8915625 335.02285156 -29.283125 335.98320313 -28.65625 336.97265625 C-24.74272464 344.12591605 -23.56843654 349.85203525 -23.8125 358 C-23.83280273 359.30517578 -23.83280273 359.30517578 -23.85351562 360.63671875 C-23.88848322 362.75808627 -23.9422747 364.87912974 -24 367 C-24.66 367 -25.32 367 -26 367 C-27.02405945 365.34800726 -28.01934137 363.67811991 -29 362 C-36.53702163 352.88719081 -44.8617439 344.81759748 -54.06640625 337.42578125 C-57.74079708 334.38743677 -61.2383198 331.18684879 -64.72949219 327.94165039 C-67.43226698 325.43010966 -70.17029425 322.99187603 -73 320.625 C-76.685651 317.42143837 -80.03537948 313.93177518 -83.375 310.375 C-84.16197266 309.54863037 -84.16197266 309.54863037 -84.96484375 308.70556641 C-87.78688616 305.65050287 -89.76808872 302.99257994 -91 299 C-91.66 299 -92.32 299 -93 299 C-94.51311219 296.88287561 -95.86405984 294.79592642 -97.1875 292.5625 C-97.58606201 291.89017334 -97.98462402 291.21784668 -98.39526367 290.52514648 C-102.74069533 282.98988148 -106.10002472 275.19078466 -109 267 C-109.65355469 265.17662109 -109.65355469 265.17662109 -110.3203125 263.31640625 C-118.82893478 235.20225223 -111.70282633 203.28844871 -98.18359375 177.93359375 C-97.46095988 176.61950581 -96.73303256 175.30831574 -96 174 C-95.62891113 173.33758301 -95.25782227 172.67516602 -94.87548828 171.99267578 C-89.12483727 161.91624917 -82.31906706 153.21528618 -74.51025391 144.65722656 C-73.13270305 143.14561725 -71.77426615 141.61664531 -70.41796875 140.0859375 C-66.10365438 135.22039045 -61.6557771 130.53879778 -57 126 C-54.34906651 123.41218398 -51.90020609 120.87717672 -49.5625 118 C-46.93248768 114.92096119 -44.1374966 112.54921599 -41 110 C-28.63044199 97.93712525 -16.85735568 84.86851738 -8 70 C-7.55011719 69.33355469 -7.10023438 68.66710937 -6.63671875 67.98046875 C3.86859497 51.49070388 4.26671302 28.9984647 0.4453125 10.4296875 C-0.20063581 6.90530285 -0.13739652 3.57230943 0 0 Z " fill="#0462B2" transform="translate(497,357)"/>
<path d="M0 0 C0.99 0.33 1.98 0.66 3 1 C3.06058594 1.75925781 3.12117187 2.51851562 3.18359375 3.30078125 C3.30927734 4.79158203 3.30927734 4.79158203 3.4375 6.3125 C3.51871094 7.29863281 3.59992187 8.28476562 3.68359375 9.30078125 C3.91812559 12.09375599 3.91812559 12.09375599 5 15 C5.22222222 19.55555556 5.22222222 19.55555556 4 22 C4.39938767 24.09821215 4.39938767 24.09821215 5 26 C4.34 26.33 3.68 26.66 3 27 C0.58424396 32.49035463 -1.94120031 39.17639906 0 45 C-0.433125 45.37125 -0.86625 45.7425 -1.3125 46.125 C-3.46152985 48.51281095 -4.64757984 51.1019568 -6 54 C-6.66 54 -7.32 54 -8 54 C-8 54.66 -8 55.32 -8 56 C-6.02 56.33 -4.04 56.66 -2 57 C-2 56.34 -2 55.68 -2 55 C-0.68 55 0.64 55 2 55 C2.66 53.02 3.32 51.04 4 49 C4.66 49 5.32 49 6 49 C6 49.66 6 50.32 6 51 C6.66 51 7.32 51 8 51 C8.33 50.01 8.66 49.02 9 48 C14.78947368 46 14.78947368 46 18 46 C18.66 44.02 19.32 42.04 20 40 C21.32 40 22.64 40 24 40 C25.60411246 38.64594139 25.60411246 38.64594139 27 37 C27.99 36.34 28.98 35.68 30 35 C30.72965366 32.43717258 30.72965366 32.43717258 31 30 C31.495 30.99 31.495 30.99 32 32 C34.02463255 32.65213292 34.02463255 32.65213292 36 33 C26.498276 43.13517227 14.85356282 49.99513193 3 57 C2.37641602 57.37108887 1.75283203 57.74217773 1.11035156 58.12451172 C-13.80721496 67 -13.80721496 67 -17 67 C-15.69422221 63.65396764 -14.28014668 60.40021372 -12.72265625 57.1640625 C-12.29146484 56.26429688 -11.86027344 55.36453125 -11.41601562 54.4375 C-10.96935547 53.509375 -10.52269531 52.58125 -10.0625 51.625 C-8.74887757 48.89450098 -7.43903252 46.16270306 -6.14501953 43.42285156 C-5.21271452 41.45010211 -4.26317299 39.48550568 -3.30859375 37.5234375 C-0.06139607 28.78023658 0.27908395 20.05161098 0.125 10.8125 C0.11597656 9.76513672 0.10695313 8.71777344 0.09765625 7.63867188 C0.07440075 5.09219486 0.04172569 2.54622969 0 0 Z " fill="#094887" transform="translate(529,672)"/>
<path d="M0 0 C0.66 0.33 1.32 0.66 2 1 C1.566875 1.75216797 1.566875 1.75216797 1.125 2.51953125 C-4.14943967 13.26986488 -3.51947085 26.37784137 -0.0625 37.625 C2.39951126 44.1832271 5.62601044 50.31262506 9.14038086 56.36767578 C12.0805786 61.54523515 12.0805786 61.54523515 11.60595703 64.22387695 C11.40599121 64.80999756 11.20602539 65.39611816 11 66 C10.51080078 65.07767578 10.51080078 65.07767578 10.01171875 64.13671875 C9.57472656 63.32847656 9.13773438 62.52023437 8.6875 61.6875 C8.25824219 60.88699219 7.82898438 60.08648438 7.38671875 59.26171875 C6.08252675 57.13459996 4.82738883 55.67510643 3 54 C-1.82663848 49.17336152 -1.82663848 49.17336152 -2.3203125 45.83203125 C-2.31342072 43.88510315 -2.16721947 41.9397459 -2 40 C-3.32 39.67 -4.64 39.34 -6 39 C-6.33 31.08 -6.66 23.16 -7 15 C-7.33 15.66 -7.66 16.32 -8 17 C-8.66 17 -9.32 17 -10 17 C-10 18.65 -10 20.3 -10 22 C-10.99 22 -11.98 22 -13 22 C-12.67 23.32 -12.34 24.64 -12 26 C-12.64839844 26.2371875 -13.29679688 26.474375 -13.96484375 26.71875 C-16.2099551 27.80153634 -16.2099551 27.80153634 -16.50390625 30.09375 C-16.52324219 30.8878125 -16.54257812 31.681875 -16.5625 32.5 C-16.62890625 34.90625 -16.62890625 34.90625 -17 37 C-17.99 37.66 -18.98 38.32 -20 39 C-20.72380155 28.42445511 -18.48554133 20.42769115 -11.859375 12.09375 C-8.10552795 7.86672895 -4.06747056 3.92277793 0 0 Z " fill="#0974CB" transform="translate(581,472)"/>
<path d="M0 0 C3.69561111 2.07795927 6.74747982 4.3922659 9.875 7.25 C10.67679687 7.97703125 11.47859375 8.7040625 12.3046875 9.453125 C13.19414062 10.29359375 14.08359375 11.1340625 15 12 C15.54277588 12.50853516 16.08555176 13.01707031 16.64477539 13.54101562 C21.25099126 17.97895329 24.99967064 22.78541803 28.6875 28 C29.24244141 28.76828125 29.79738281 29.5365625 30.36914062 30.328125 C39.14379183 42.59802966 39.14379183 42.59802966 38.75 46.4375 C38.5025 46.953125 38.255 47.46875 38 48 C37.01 47.67 36.02 47.34 35 47 C35 46.01 35 45.02 35 44 C34.01 44.495 34.01 44.495 33 45 C33 44.34 33 43.68 33 43 C32.34 43 31.68 43 31 43 C30.90203125 42.31292969 30.8040625 41.62585938 30.703125 40.91796875 C30.55359375 40.01691406 30.4040625 39.11585938 30.25 38.1875 C30.11078125 37.29417969 29.9715625 36.40085937 29.828125 35.48046875 C28.831159 32.49427342 27.6417565 31.61619656 25 30 C25.33 29.34 25.66 28.68 26 28 C25.34 28 24.68 28 24 28 C23.71125 27.360625 23.4225 26.72125 23.125 26.0625 C22.17176549 23.84793921 22.17176549 23.84793921 20 23 C20 22.34 20 21.68 20 21 C19.34 21 18.68 21 18 21 C18 20.34 18 19.68 18 19 C17.01 19 16.02 19 15 19 C15 18.01 15 17.02 15 16 C14.34 16 13.68 16 13 16 C12.67 14.68 12.34 13.36 12 12 C10.824375 12.0928125 10.824375 12.0928125 9.625 12.1875 C8.325625 12.0946875 8.325625 12.0946875 7 12 C6.34 11.01 5.68 10.02 5 9 C2.99545935 14.34544174 4.82958694 20.58683958 6 26 C6.33333333 27.66666667 6.66666667 29.33333333 7 31 C9.3431213 30.74438677 11.67843403 30.40729228 14 30 C14.33 29.34 14.66 28.68 15 28 C15 29.65 15 31.3 15 33 C11.98968256 33.93423645 11.13349732 34.04449911 8 33 C8.2475 33.680625 8.495 34.36125 8.75 35.0625 C9.05636803 38.66232441 7.82223736 40.24698373 5.92578125 43.21875 C4.56966455 45.8279872 4.71974207 48.12735617 5 51 C3.515 51.495 3.515 51.495 2 52 C2.01047363 51.0934668 2.02094727 50.18693359 2.03173828 49.25292969 C2.06619281 45.83102788 2.09107754 42.40931522 2.10986328 38.98730469 C2.11980927 37.51722267 2.13337091 36.04715984 2.15087891 34.57714844 C2.24563168 26.40611541 2.0694334 18.55197969 0.4453125 10.5 C-0.18735225 6.94819787 -0.13836386 3.59746038 0 0 Z " fill="#0A77CF" transform="translate(497,357)"/>
<path d="M0 0 C0.99 0.33 1.98 0.66 3 1 C2.67 1.66 2.34 2.32 2 3 C1.34 3 0.68 3 0 3 C-0.26167969 3.58910156 -0.52335937 4.17820312 -0.79296875 4.78515625 C-2.0642275 7.11785434 -3.40230531 8.60354368 -5.3125 10.4375 C-5.93898438 11.0459375 -6.56546875 11.654375 -7.2109375 12.28125 C-7.80132812 12.8484375 -8.39171875 13.415625 -9 14 C-9.804375 14.804375 -10.60875 15.60875 -11.4375 16.4375 C-12.95769358 17.95769358 -14.48211662 19.47370761 -16.015625 20.98046875 C-16.73234375 21.68816406 -17.4490625 22.39585937 -18.1875 23.125 C-19.19876953 24.11886719 -19.19876953 24.11886719 -20.23046875 25.1328125 C-22.17553358 27.07943317 -22.17553358 27.07943317 -24 30 C-24.53625 30.680625 -25.0725 31.36125 -25.625 32.0625 C-27.19291567 33.87586534 -27.19291567 33.87586534 -27 36 C-28.97946592 37.36363208 -30.9819245 38.69418644 -33 40 C-34.79394446 41.62351109 -34.79394446 41.62351109 -36 43 C-35.67 43.66 -35.34 44.32 -35 45 C-36.32 45 -37.64 45 -39 45 C-39.66 48.3 -40.32 51.6 -41 55 C-41.99 55 -42.98 55 -44 55 C-44.2578125 55.57878906 -44.515625 56.15757812 -44.78125 56.75390625 C-46.10012482 59.18452491 -47.61480225 60.92049817 -49.5 62.9375 C-52.08789963 65.81593306 -53.93260271 68.20480963 -55 72 C-56.1484375 70.31640625 -56.1484375 70.31640625 -57 68 C-50.35326811 48.83629169 -30.24763559 29.88965479 -16 16 C-13.34906651 13.41218398 -10.90020609 10.87717672 -8.5625 8 C-5.85064098 4.82514066 -3.3872642 2.42999388 0 0 Z " fill="#0976CF" transform="translate(456,467)"/>
<path d="M0 0 C8.19337465 9.45389382 12.36900425 18.41201372 12.125 30.875 C12.11597656 31.75414062 12.10695313 32.63328125 12.09765625 33.5390625 C12.07424577 35.6928271 12.0383801 37.84645014 12 40 C11.34 40 10.68 40 10 40 C8.97594055 38.34800726 7.98065863 36.67811991 7 35 C-0.69805974 25.69248399 -9.19940526 17.44057943 -18.6796875 9.98046875 C-21 8 -21 8 -23 5 C-19.71303767 4.20046862 -18.28976808 3.90341064 -15 5 C-15 5.66 -15 6.32 -15 7 C-15.66 7 -16.32 7 -17 7 C-17 7.66 -17 8.32 -17 9 C-16.030625 9.268125 -15.06125 9.53625 -14.0625 9.8125 C-13.051875 10.204375 -12.04125 10.59625 -11 11 C-10.67 11.99 -10.34 12.98 -10 14 C-9.01 14.33 -8.02 14.66 -7 15 C-7 15.99 -7 16.98 -7 18 C-6.1028125 17.6596875 -6.1028125 17.6596875 -5.1875 17.3125 C-4.465625 17.209375 -3.74375 17.10625 -3 17 C-1.4375 18.375 -1.4375 18.375 0 20 C0.99 20.33 1.98 20.66 3 21 C2.87625 22.1446875 2.87625 22.1446875 2.75 23.3125 C2.71682041 26.12011402 2.71682041 26.12011402 4.875 27.8125 C6.8852657 29.16260712 6.8852657 29.16260712 9 29 C9.21371507 24.51198361 8.52997851 21.2074409 7 17 C7 16.34 7 15.68 7 15 C5.68 15.33 4.36 15.66 3 16 C3.0825 15.01 3.165 14.02 3.25 13 C3.28790692 8.36587933 1.28285285 4.92365334 -1 1 C-0.67 0.67 -0.34 0.34 0 0 Z " fill="#094785" transform="translate(461,684)"/>
<path d="M0 0 C0.66 0 1.32 0 2 0 C2.125 2.375 2.125 2.375 2 5 C1.34 5.66 0.68 6.32 0 7 C0.03259711 8.98842376 0.06697521 10.97688932 0.12109375 12.96484375 C-0.11318186 16.90218545 -2.31835059 19.31835059 -5 22 C-5.66 22.28875 -6.32 22.5775 -7 22.875 C-9.49616414 24.27909233 -9.82320891 25.42576949 -11 28 C-11.66 28.78375 -12.32 29.5675 -13 30.375 C-15.1714998 32.90570912 -15.1714998 32.90570912 -15.9375 36.125 C-17 39 -17 39 -19.3125 40.3125 C-22.86942123 42.54591566 -23.92140695 45.21154613 -25.69140625 48.94140625 C-27.22379887 51.35206569 -28.39471375 51.93259146 -31 53 C-31.86625 53.53625 -32.7325 54.0725 -33.625 54.625 C-36 56 -36 56 -38 56 C-36.40814709 52.16508162 -33.82133636 49.46240318 -31 46.5 C-22.40065668 37.27036067 -14.42622646 27.91308022 -8 17 C-7.52691406 16.2059375 -7.05382812 15.411875 -6.56640625 14.59375 C-3.83706378 9.86396958 -1.78286894 5.1609364 0 0 Z " fill="#0873C9" transform="translate(497,410)"/>
<path d="M0 0 C5.57814388 8.36721582 5.50735642 19.01158685 5.44604492 28.75317383 C5.43754908 30.8006726 5.46639256 32.84535345 5.49804688 34.89257812 C5.56498057 47.32761014 2.90757058 58.56740123 -2.25 69.9375 C-2.77078125 71.10152344 -3.2915625 72.26554688 -3.828125 73.46484375 C-4.21484375 74.30144531 -4.6015625 75.13804687 -5 76 C-7.0234375 72.2421875 -7.0234375 72.2421875 -6.8125 70.0625 C-6 68 -6 68 -4.625 65.75 C-2.5766051 62.28348555 -1.34976806 58.7922055 0 55 C-0.66 55 -1.32 55 -2 55 C-2 52.69 -2 50.38 -2 48 C-1.01 47.505 -1.01 47.505 0 47 C0.33 47.66 0.66 48.32 1 49 C2.06663667 41.45809251 2.06663667 41.45809251 1 34 C0.814375 33.236875 0.62875 32.47375 0.4375 31.6875 C0.293125 31.130625 0.14875 30.57375 0 30 C0.99 29.67 1.98 29.34 3 29 C3.05389087 27.04196493 3.09274217 25.08351091 3.125 23.125 C3.14820313 22.03445313 3.17140625 20.94390625 3.1953125 19.8203125 C3.30060534 16.8628949 3.30060534 16.8628949 1 15 C-0.03161608 13.01612292 -1.03523618 11.01723344 -2 9 C-1.34 9 -0.68 9 0 9 C0 6.03 0 3.06 0 0 Z " fill="#0A4F91" transform="translate(615,577)"/>
<path d="M0 0 C0.66 0 1.32 0 2 0 C4.81853242 2.81853242 4.23420975 4.74414395 4.3125 8.6875 C4.91924262 21.54363316 9.76444882 32.38796685 16.140625 43.36669922 C19.08028887 48.54687032 19.08028887 48.54687032 18.60595703 51.22387695 C18.40599121 51.80999756 18.20602539 52.39611816 18 53 C17.51080078 52.07767578 17.51080078 52.07767578 17.01171875 51.13671875 C16.57472656 50.32847656 16.13773438 49.52023437 15.6875 48.6875 C15.25824219 47.88699219 14.82898438 47.08648438 14.38671875 46.26171875 C13.08252675 44.13459996 11.82738883 42.67510643 10 41 C5.17336152 36.17336152 5.17336152 36.17336152 4.6796875 32.83203125 C4.68657928 30.88510315 4.83278053 28.9397459 5 27 C3.68 26.67 2.36 26.34 1 26 C0.67 17.42 0.34 8.84 0 0 Z " fill="#0A6FC3" transform="translate(574,485)"/>
<path d="M0 0 C-1.47723971 4.41530534 -3.87486692 7.77814672 -6.75 11.375 C-7.46603394 12.27822998 -7.46603394 12.27822998 -8.1965332 13.19970703 C-14.07259852 20.49238255 -20.50451365 27.26161606 -27 34 C-27.85722656 34.89847656 -28.71445312 35.79695312 -29.59765625 36.72265625 C-33.49779647 40.73604918 -33.49779647 40.73604918 -35 42 C-35.66 42 -36.32 42 -37 42 C-37 42.66 -37 43.32 -37 44 C-38.485 44.495 -38.485 44.495 -40 45 C-39.46141318 41.20503444 -38.04548856 39.92292609 -35.0625 37.625 C-31.40272573 34.61297339 -30.46567341 32.50171118 -29 28 C-25.875 26.625 -25.875 26.625 -23 26 C-22.67 24.35 -22.34 22.7 -22 21 C-21.2575 20.938125 -20.515 20.87625 -19.75 20.8125 C-16.06083957 19.72252078 -15.01363204 18.23619435 -13 15 C-12.20309162 11.81237891 -12.20309162 11.81237891 -12 9 C-11.34 9 -10.68 9 -10 9 C-10 8.34 -10 7.68 -10 7 C-8.68 7 -7.36 7 -6 7 C-5.896875 6.21625 -5.79375 5.4325 -5.6875 4.625 C-4.82572663 1.33459258 -3.53157582 0 0 0 Z " fill="#094A8A" transform="translate(605,660)"/>
<path d="M0 0 C3.60946934 5.41420401 4.27576629 10.5621912 4.65625 16.92578125 C4.7696875 17.61027344 4.883125 18.29476562 5 19 C5.66 19.33 6.32 19.66 7 20 C6.938125 20.78375 6.87625 21.5675 6.8125 22.375 C6.874375 23.24125 6.93625 24.1075 7 25 C7.99 25.66 8.98 26.32 10 27 C10.1875 29.625 10.1875 29.625 10 32 C9.01 32 8.02 32 7 32 C7.99 33.6396875 7.99 33.6396875 9 35.3125 C11.55458846 40.38544163 11.7756974 45.41678265 11 51 C10.34 51.99 9.68 52.98 9 54 C8.34 54 7.68 54 7 54 C6.98582031 53.03964844 6.97164062 52.07929687 6.95703125 51.08984375 C6.66183832 41.18735095 5.05948144 31.99237068 2.80908203 22.35302734 C1.09378371 14.86797463 0.14673366 7.69684743 0 0 Z " fill="#086FC5" transform="translate(561,512)"/>
<path d="M0 0 C5.2822571 3.97366169 8.83877217 8.48758704 12.625 13.875 C13.18445313 14.65230469 13.74390625 15.42960937 14.3203125 16.23046875 C23.14249676 28.61065657 23.14249676 28.61065657 22.75 32.4375 C22.5025 32.953125 22.255 33.46875 22 34 C20.515 33.505 20.515 33.505 19 33 C19 32.01 19 31.02 19 30 C18.34 30.33 17.68 30.66 17 31 C17 30.34 17 29.68 17 29 C16.34 29 15.68 29 15 29 C14.90203125 28.31292969 14.8040625 27.62585938 14.703125 26.91796875 C14.55359375 26.01691406 14.4040625 25.11585938 14.25 24.1875 C14.04117188 22.84751953 14.04117188 22.84751953 13.828125 21.48046875 C12.831159 18.49427342 11.6417565 17.61619656 9 16 C9.33 15.34 9.66 14.68 10 14 C9.34 14 8.68 14 8 14 C7.71125 13.360625 7.4225 12.72125 7.125 12.0625 C6.17176549 9.84793921 6.17176549 9.84793921 4 9 C4 8.34 4 7.68 4 7 C3.34 7 2.68 7 2 7 C2 6.34 2 5.68 2 5 C1.01 5 0.02 5 -1 5 C-0.67 3.35 -0.34 1.7 0 0 Z " fill="#0870C4" transform="translate(513,371)"/>
<path d="M0 0 C0.33 0 0.66 0 1 0 C1.33 10.89 1.66 21.78 2 33 C0 29 0 29 0 27 C-1.65 26.67 -3.3 26.34 -5 26 C-4.80083984 25.00033203 -4.80083984 25.00033203 -4.59765625 23.98046875 C-3.47409761 18.11664083 -2.69495261 12.3718205 -2.34375 6.41015625 C-1.98550543 3.89837333 -1.25810421 2.18646337 0 0 Z " fill="#066DC1" transform="translate(523,534)"/>
<path d="M0 0 C0.66 0.99 1.32 1.98 2 3 C2.33 2.01 2.66 1.02 3 0 C3.98120464 3.05263664 3.98120464 4.94736336 3 8 C2.01 8 1.02 8 0 8 C-0.2578125 8.57878906 -0.515625 9.15757812 -0.78125 9.75390625 C-2.10012482 12.18452491 -3.61480225 13.92049817 -5.5 15.9375 C-8.08789963 18.81593306 -9.93260271 21.20480963 -11 25 C-12.15234375 23.3203125 -12.15234375 23.3203125 -13 21 C-12.12890625 18.5546875 -12.12890625 18.5546875 -10.5625 15.875 C-10.00433594 14.91722656 -9.44617188 13.95945312 -8.87109375 12.97265625 C-6.07471307 8.52997212 -3.1035202 4.23290773 0 0 Z " fill="#0770C6" transform="translate(412,514)"/>
<path d="M0 0 C0.33 0 0.66 0 1 0 C1.19588601 3.6454342 1.38030536 7.2913579 1.5625 10.9375 C1.61857422 11.97841797 1.67464844 13.01933594 1.73242188 14.09179688 C1.78076172 15.08115234 1.82910156 16.07050781 1.87890625 17.08984375 C1.9260376 18.00628662 1.97316895 18.92272949 2.02172852 19.86694336 C2 22 2 22 1 23 C0.76807135 24.51469448 0.58784762 26.03754562 0.4375 27.5625 C0.35371094 28.38878906 0.26992188 29.21507812 0.18359375 30.06640625 C0.12300781 30.70449219 0.06242187 31.34257813 0 32 C-2.85742563 29.56757571 -2.98466349 29.16375436 -3.36328125 25.12109375 C-3.36478619 23.5598048 -3.34689805 21.99841071 -3.3125 20.4375 C-3.303396 19.63062744 -3.29429199 18.82375488 -3.28491211 17.99243164 C-2.972532 2.972532 -2.972532 2.972532 0 0 Z " fill="#076BBE" transform="translate(479,557)"/>
<path d="M0 0 C7.43172871 11.14759306 5.30133189 26.26061505 5 39 C4.01 39 3.02 39 2 39 C1.855625 38.2575 1.71125 37.515 1.5625 36.75 C1.09812508 34.47972261 0.58136431 32.24240521 0 30 C0.99 29.67 1.98 29.34 3 29 C3.05389087 27.04196493 3.09274217 25.08351091 3.125 23.125 C3.14820313 22.03445313 3.17140625 20.94390625 3.1953125 19.8203125 C3.30060534 16.8628949 3.30060534 16.8628949 1 15 C-0.03161608 13.01612292 -1.03523618 11.01723344 -2 9 C-1.34 9 -0.68 9 0 9 C0 6.03 0 3.06 0 0 Z " fill="#07579E" transform="translate(615,577)"/>
<path d="M0 0 C0.66 0.33 1.32 0.66 2 1 C1.72285156 1.67546875 1.44570313 2.3509375 1.16015625 3.046875 C0.79792969 3.93890625 0.43570313 4.8309375 0.0625 5.75 C-0.29714844 6.63171875 -0.65679688 7.5134375 -1.02734375 8.421875 C-2.8262883 13.19016176 -3.27003761 17.67745567 -3.5625 22.75 C-3.60568359 23.44738281 -3.64886719 24.14476562 -3.69335938 24.86328125 C-3.79889596 26.57531922 -3.8998991 28.28763561 -4 30 C-4.33 30 -4.66 30 -5 30 C-5 24.39 -5 18.78 -5 13 C-5.66 13 -6.32 13 -7 13 C-7.33 13.66 -7.66 14.32 -8 15 C-8.66 14.67 -9.32 14.34 -10 14 C-9.54261927 9.31808451 -7.80889606 7.36895826 -4.4375 4.1875 C-3.61121094 3.39730469 -2.78492188 2.60710937 -1.93359375 1.79296875 C-1.29550781 1.20128906 -0.65742187 0.60960937 0 0 Z " fill="#077DDD" transform="translate(581,472)"/>
<path d="M0 0 C4.27061638 6.40592457 4.31553054 12.77951837 4.25 20.25 C4.26160156 21.59578125 4.26160156 21.59578125 4.2734375 22.96875 C4.27085937 23.82984375 4.26828125 24.6909375 4.265625 25.578125 C4.26336914 26.35575195 4.26111328 27.13337891 4.25878906 27.93457031 C4 30 4 30 2 33 C0.0769111 31.0769111 0.74678162 27.52929515 0.68359375 24.90234375 C0.66281265 24.19348526 0.64203156 23.48462677 0.62062073 22.75428772 C0.55505402 20.48212695 0.4962077 18.20984736 0.4375 15.9375 C0.39432151 14.40037817 0.35070745 12.8632685 0.30664062 11.32617188 C0.19936551 7.5509041 0.09811863 3.7755164 0 0 Z " fill="#076BBD" transform="translate(544,429)"/>
<path d="M0 0 C0.66 0 1.32 0 2 0 C2.02468857 4.5206665 2.04285449 9.0412939 2.05493164 13.56201172 C2.05996552 15.10043013 2.06679308 16.63884375 2.07543945 18.17724609 C2.08754639 20.38640526 2.09323769 22.59550126 2.09765625 24.8046875 C2.10281754 25.49432587 2.10797882 26.18396423 2.11329651 26.89450073 C2.11387171 31.77225659 2.11387171 31.77225659 1 34 C0.34 34 -0.32 34 -1 34 C-0.67 22.78 -0.34 11.56 0 0 Z " fill="#040A15" transform="translate(621,592)"/>
<path d="M0 0 C0.33 0 0.66 0 1 0 C2.9950713 8.1227903 3.22000989 16.11024485 3.25 24.4375 C3.25902344 25.49195313 3.26804687 26.54640625 3.27734375 27.6328125 C3.27347656 28.63957031 3.26960938 29.64632813 3.265625 30.68359375 C3.26336914 31.58650146 3.26111328 32.48940918 3.25878906 33.41967773 C2.97500573 36.24921173 2.17007844 38.42077298 1 41 C0.67 41 0.34 41 0 41 C0 27.47 0 13.94 0 0 Z " fill="#050814" transform="translate(496,366)"/>
<path d="M0 0 C0.99 0.33 1.98 0.66 3 1 C3.06058594 1.75925781 3.12117187 2.51851562 3.18359375 3.30078125 C3.26738281 4.29464844 3.35117187 5.28851562 3.4375 6.3125 C3.55931641 7.79169922 3.55931641 7.79169922 3.68359375 9.30078125 C3.91812559 12.09375599 3.91812559 12.09375599 5 15 C5.47954457 19.43578724 4.14713537 22.15304913 2 26 C1.67 26 1.34 26 1 26 C0.67 17.42 0.34 8.84 0 0 Z " fill="#074A8E" transform="translate(529,672)"/>
<path d="M0 0 C3.28364308 3.02211398 5.49980584 6.15351426 7.75 10 C8.67039062 11.546875 8.67039062 11.546875 9.609375 13.125 C11 16 11 16 11 20 C10.34 20 9.68 20 9 20 C9 19.34 9 18.68 9 18 C8.34 18 7.68 18 7 18 C7 17.01 7 16.02 7 15 C6.34 14.67 5.68 14.34 5 14 C4.33333333 12.33333333 3.66666667 10.66666667 3 9 C2.34 8.67 1.68 8.34 1 8 C1 7.01 1 6.02 1 5 C0.01 4.67 -0.98 4.34 -2 4 C-1.34 2.68 -0.68 1.36 0 0 Z " fill="#086EC2" transform="translate(594,538)"/>
<path d="M0 0 C0.66 0 1.32 0 2 0 C2 0.99 2 1.98 2 3 C1.34 3 0.68 3 0 3 C0.061875 3.680625 0.12375 4.36125 0.1875 5.0625 C-0.05295088 8.82956382 -1.44584052 11.58084915 -3 15 C-3.165 15.78375 -3.33 16.5675 -3.5 17.375 C-3.665 17.91125 -3.83 18.4475 -4 19 C-4.99 19.33 -5.98 19.66 -7 20 C-6.17049197 12.57156986 -5.23108395 5.7005402 0 0 Z " fill="#086ABC" transform="translate(397,541)"/>
<path d="M0 0 C0.33 0 0.66 0 1 0 C1.31443067 3.87274517 1.5687408 7.74721602 1.8125 11.625 C1.90208984 12.71941406 1.99167969 13.81382812 2.08398438 14.94140625 C2.60881696 24.05691964 2.60881696 24.05691964 -0.48828125 27.7734375 C-1.31714844 28.50820313 -2.14601563 29.24296875 -3 30 C-3.66 29.67 -4.32 29.34 -5 29 C-3.21884592 23.40208717 -3.21884592 23.40208717 -1.95556641 21.08105469 C-0.88089165 18.74060307 -0.68990061 17.01754827 -0.5859375 14.453125 C-0.52792969 13.18662109 -0.52792969 13.18662109 -0.46875 11.89453125 C-0.42234375 10.58548828 -0.42234375 10.58548828 -0.375 9.25 C-0.31699219 7.91775391 -0.31699219 7.91775391 -0.2578125 6.55859375 C-0.16379127 4.3726002 -0.07813857 2.18660938 0 0 Z " fill="#095FA8" transform="translate(567,549)"/>
<path d="M0 0 C4.85042388 0.41575062 6.84319505 2.41659978 10 6 C12 9 12 9 13 11 C12.01 11.33 11.02 11.66 10 12 C6.37 8.7 2.74 5.4 -1 2 C-0.67 1.34 -0.34 0.68 0 0 Z " fill="#0A5499" transform="translate(420,671)"/>
<path d="M0 0 C0.33 0 0.66 0 1 0 C1.07347656 1.66675781 1.07347656 1.66675781 1.1484375 3.3671875 C1.53916919 11.39568598 2.01905545 19.17238416 4 27 C2.68 26.67 1.36 26.34 0 26 C0 25.34 0 24.68 0 24 C-0.66 23.67 -1.32 23.34 -2 23 C-2 21.35 -2 19.7 -2 18 C-1.34 18 -0.68 18 0 18 C0 12.06 0 6.12 0 0 Z " fill="#095496" transform="translate(437,620)"/>
<path d="M0 0 C-2.74683493 2.6075222 -5.49801237 5.21041739 -8.25 7.8125 C-9.02730469 8.55048828 -9.80460937 9.28847656 -10.60546875 10.04882812 C-11.35957031 10.76103516 -12.11367188 11.47324219 -12.890625 12.20703125 C-13.58188477 12.8616333 -14.27314453 13.51623535 -14.98535156 14.19067383 C-16.9145043 15.92321757 -18.90132927 17.47949248 -21 19 C-19.63055898 16.05043472 -18.12169591 13.47531189 -16 11 C-15.34 11 -14.68 11 -14 11 C-14 10.34 -14 9.68 -14 9 C-13.34 9 -12.68 9 -12 9 C-12 8.34 -12 7.68 -12 7 C-11.195625 6.773125 -10.39125 6.54625 -9.5625 6.3125 C-8.716875 5.879375 -7.87125 5.44625 -7 5 C-6.10613836 2.45224694 -6.10613836 2.45224694 -6 0 C-2.25 -1.125 -2.25 -1.125 0 0 Z " fill="#0B6DBD" transform="translate(480,553)"/>
<path d="M0 0 C3.15661912 2.92175162 5.21924321 6.32426853 7.5 9.94140625 C9.00066377 12.25018978 9.00066377 12.25018978 12 14 C12 14.66 12 15.32 12 16 C7.32307692 14.52307692 7.32307692 14.52307692 5.6875 11.875 C5.3471875 10.946875 5.3471875 10.946875 5 10 C4.34 10 3.68 10 3 10 C3 10.66 3 11.32 3 12 C2.34 12 1.68 12 1 12 C1.020625 10.948125 1.04125 9.89625 1.0625 8.8125 C1.01103198 5.67295096 0.73482813 3.03116604 0 0 Z " fill="#096EC2" transform="translate(526,568)"/>
<path d="M0 0 C0.33 0 0.66 0 1 0 C1 1.65 1 3.3 1 5 C-2.01031744 5.93423645 -2.86650268 6.04449911 -6 5 C-5.773125 5.763125 -5.54625 6.52625 -5.3125 7.3125 C-5.209375 8.199375 -5.10625 9.08625 -5 10 C-6.4375 11.8125 -6.4375 11.8125 -8 13 C-8.98248524 8.9472484 -9.08159574 5.16138263 -9 1 C-8.443125 1.350625 -7.88625 1.70125 -7.3125 2.0625 C-4.46113217 3.21845993 -2.91482778 2.80967438 0 2 C0 1.34 0 0.68 0 0 Z " fill="#0572CA" transform="translate(511,385)"/>
<path d="M0 0 C0.82514784 2.83384108 1.07936233 5.16935251 0.87890625 8.109375 C0.83056641 8.86347656 0.78222656 9.61757813 0.73242188 10.39453125 C0.64831055 11.56048828 0.64831055 11.56048828 0.5625 12.75 C0.51029297 13.54277344 0.45808594 14.33554687 0.40429688 15.15234375 C0.27510676 17.10193997 0.13830035 19.05102886 0 21 C0.66 21 1.32 21 2 21 C3.49821059 24.37097383 4 26.20442119 4 30 C3.01 29.67 2.02 29.34 1 29 C-1.21508089 23.43654101 -1.27454783 18.17841539 -1.1875 12.25 C-1.18685547 11.40050781 -1.18621094 10.55101562 -1.18554688 9.67578125 C-1.16033967 6.12996715 -1.13113472 3.39340416 0 0 Z " fill="#03152C" transform="translate(579,480)"/>
<path d="M0 0 C3.49793713 5.24690569 4.27233279 10.14454604 4.625 16.375 C4.69976563 17.62023437 4.77453125 18.86546875 4.8515625 20.1484375 C4.90054688 21.08945312 4.94953125 22.03046875 5 23 C2.12022568 17.44614952 0.72903883 13.0011925 0.375 6.6875 C0.30023437 5.43324219 0.22546875 4.17898438 0.1484375 2.88671875 C0.09945312 1.93410156 0.05046875 0.98148438 0 0 Z " fill="#0A79D4" transform="translate(561,512)"/>
<path d="M0 0 C1.33895632 1.66215268 2.67130142 3.32963607 4 5 C4.86625 5.9590625 4.86625 5.9590625 5.75 6.9375 C7.42580623 9.70258028 7.21618159 11.82933662 7 15 C5.68 15.33 4.36 15.66 3 16 C3.0825 15.01 3.165 14.02 3.25 13 C3.28790692 8.36587933 1.28285285 4.92365334 -1 1 C-0.67 0.67 -0.34 0.34 0 0 Z " fill="#094D8F" transform="translate(461,684)"/>
<path d="M0 0 C3.63801667 2.42534444 4.4396167 4.16601829 5.6875 8.25 C6.11300929 11.99448177 5.56809848 15.27579886 5 19 C4.67 19 4.34 19 4 19 C3.32900016 16.39688008 2.66304662 13.79264602 2 11.1875 C1.80921875 10.44951172 1.6184375 9.71152344 1.421875 8.95117188 C0.64737086 5.89464659 0 3.16626522 0 0 Z " fill="#0A5BA4" transform="translate(384,605)"/>
<path d="M0 0 C0.66 0 1.32 0 2 0 C1.34 4.29 0.68 8.58 0 13 C-0.33 13 -0.66 13 -1 13 C-1.33 10.69 -1.66 8.38 -2 6 C-3.65 6.33 -5.3 6.66 -7 7 C-4.66666667 4.66666667 -2.33333333 2.33333333 0 0 Z " fill="#03142D" transform="translate(477,555)"/>
<path d="M0 0 C2.31 0.33 4.62 0.66 7 1 C7 1.66 7 2.32 7 3 C6.34 3 5.68 3 5 3 C5 3.66 5 4.32 5 5 C6.32 5.66 7.64 6.32 9 7 C8.67 7.99 8.34 8.98 8 10 C5.03 7.36 2.06 4.72 -1 2 C-0.67 1.34 -0.34 0.68 0 0 Z " fill="#095195" transform="translate(439,688)"/>
<path d="M0 0 C0.66 0 1.32 0 2 0 C2.12375 0.969375 2.2475 1.93875 2.375 2.9375 C2.58125 3.948125 2.7875 4.95875 3 6 C3.66 6.33 4.32 6.66 5 7 C4.34 8.32 3.68 9.64 3 11 C-0.0916909 8.47043472 -0.90931332 5.77545388 -2 2 C-1.34 1.34 -0.68 0.68 0 0 Z " fill="#08559A" transform="translate(525,656)"/>
<path d="M0 0 C0.33 0.66 0.66 1.32 1 2 C1.66 2 2.32 2 3 2 C2 4 2 4 0.4375 6 C-1.19454535 7.86017053 -1.19454535 7.86017053 -1 10 C-2.65 10.33 -4.3 10.66 -6 11 C-5.690625 10.4225 -5.38125 9.845 -5.0625 9.25 C-3.93600448 7.08793083 -3.93600448 7.08793083 -3.5625 4.9375 C-2.88216678 2.59413001 -1.81812041 1.58097427 0 0 Z " fill="#0473CC" transform="translate(430,493)"/>
<path d="M0 0 C0.66 0.33 1.32 0.66 2 1 C1.125 6.875 1.125 6.875 0 8 C-0.23653523 10.52596259 -0.42173692 13.03107207 -0.5625 15.5625 C-0.60568359 16.27341797 -0.64886719 16.98433594 -0.69335938 17.71679688 C-0.79971777 19.47761912 -0.90038846 21.2387832 -1 23 C-1.33 23 -1.66 23 -2 23 C-2.05429278 20.29139335 -2.09381211 17.58389099 -2.125 14.875 C-2.14175781 14.11445313 -2.15851562 13.35390625 -2.17578125 12.5703125 C-2.21546246 7.96729269 -1.75907577 4.33535996 0 0 Z " fill="#040510" transform="translate(581,478)"/>
<path d="M0 0 C1.875 0.125 1.875 0.125 4 1 C4.73519522 2.97583715 5.39072482 4.98177598 6 7 C7.28072371 9.0340906 8.60287726 11.04402816 10 13 C9.67 13.66 9.34 14.32 9 15 C1.33257403 5.77448747 1.33257403 5.77448747 0 0 Z " fill="#0A69BA" transform="translate(484,606)"/>
<path d="M0 0 C0.33 0 0.66 0 1 0 C1.04241723 2.33294775 1.04092937 4.66702567 1 7 C0.67 7.33 0.34 7.66 0 8 C-0.15620555 9.41327947 -0.25056173 10.8335459 -0.31640625 12.25390625 C-0.35830078 13.10791016 -0.40019531 13.96191406 -0.44335938 14.84179688 C-0.48267578 15.73962891 -0.52199219 16.63746094 -0.5625 17.5625 C-0.60568359 18.46419922 -0.64886719 19.36589844 -0.69335938 20.29492188 C-0.79978142 22.52978485 -0.90179988 24.76476308 -1 27 C-1.33 27 -1.66 27 -2 27 C-2.05845196 23.62507371 -2.09374742 20.25027913 -2.125 16.875 C-2.14175781 15.92367187 -2.15851563 14.97234375 -2.17578125 13.9921875 C-2.21104528 8.91416745 -2.03333617 4.75512475 0 0 Z " fill="#01142F" transform="translate(440,610)"/>
<path d="M0 0 C0.33 0.66 0.66 1.32 1 2 C-2.96 7.94 -2.96 7.94 -7 14 C-8 11 -8 11 -7 8 C-6 7 -5 6 -4 5 C-3.67 4.01 -3.34 3.02 -3 2 C-2.01 1.34 -1.02 0.68 0 0 Z " fill="#0B6BBC" transform="translate(456,574)"/>
<path d="M0 0 C0.33 0 0.66 0 1 0 C1 1.65 1 3.3 1 5 C0.34 5 -0.32 5 -1 5 C-1.04898437 5.62648438 -1.09796875 6.25296875 -1.1484375 6.8984375 C-1.22320312 7.71570313 -1.29796875 8.53296875 -1.375 9.375 C-1.44460938 10.18710937 -1.51421875 10.99921875 -1.5859375 11.8359375 C-2 14 -2 14 -4 16 C-4.16682272 11.07872966 -4.24828052 7.49656104 -2 3 C-1.34 3 -0.68 3 0 3 C0 2.01 0 1.02 0 0 Z " fill="#086BBE" transform="translate(390,563)"/>
<path d="M0 0 C0.99 0.33 1.98 0.66 3 1 C4.2063366 6.22745859 3.75612577 10.76528314 3 16 C2.67 16 2.34 16 2 16 C1.66104344 14.27192682 1.32908475 12.54248026 1 10.8125 C0.814375 9.84957031 0.62875 8.88664063 0.4375 7.89453125 C0.03122388 5.2065794 -0.07933572 2.71228981 0 0 Z " fill="#0B549B" transform="translate(529,672)"/>
<path d="M0 0 C1.47742793 3.84131261 0.3587688 6.2434039 -1 10 C-1 10.99 -1 11.98 -1 13 C-2.32 12.67 -3.64 12.34 -5 12 C-3.68938409 7.76570244 -2.05643741 3.92592596 0 0 Z " fill="#04142C" transform="translate(449,587)"/>
<path d="M0 0 C-2.66666667 2.66666667 -5.33333333 5.33333333 -8 8 C-8.66 7.67 -9.32 7.34 -10 7 C-7.56916996 1.40909091 -7.56916996 1.40909091 -5 -0.4375 C-3 -1 -3 -1 0 0 Z " fill="#0668BB" transform="translate(568,577)"/>
<path d="M0 0 C0.66 0 1.32 0 2 0 C3.18225237 6.83079148 2.74464946 13.12631267 2 20 C1.67 20 1.34 20 1 20 C0.67 13.4 0.34 6.8 0 0 Z " fill="#057CDC" transform="translate(500,375)"/>
<path d="M0 0 C1.65 0 3.3 0 5 0 C5.6875 1.75 5.6875 1.75 6 4 C4.5625 6.25 4.5625 6.25 3 8 C2.01 5.36 1.02 2.72 0 0 Z " fill="#08569D" transform="translate(393,635)"/>
<path d="M0 0 C1.09658936 3.28976808 0.79953138 4.71303767 0 8 C-0.99 8.33 -1.98 8.66 -3 9 C-3.66 8.34 -4.32 7.68 -5 7 C-3.35 4.69 -1.7 2.38 0 0 Z " fill="#096BBC" transform="translate(412,514)"/>
<path d="M0 0 C0.99 0.33 1.98 0.66 3 1 C2.34 3.31 1.68 5.62 1 8 C0.01 8 -0.98 8 -2 8 C-2.20086443 4.28400809 -2.1519437 3.22791555 0 0 Z " fill="#06569E" transform="translate(439,604)"/>
<path d="M0 0 C0.66 0 1.32 0 2 0 C2.268125 0.7425 2.53625 1.485 2.8125 2.25 C3.94229421 4.86636554 5.20893202 6.80187111 7 9 C3.76939581 8.44299928 1.9341777 7.70784878 0 5 C-0.1875 2.3125 -0.1875 2.3125 0 0 Z " fill="#0A3361" transform="translate(638,449)"/>
<path d="M0 0 C0.99 0.33 1.98 0.66 3 1 C3.6875 3.0625 3.6875 3.0625 4 5 C4.66 5 5.32 5 6 5 C7.0625 6.8125 7.0625 6.8125 8 9 C7.67 9.99 7.34 10.98 7 12 C6.0165504 10.56542672 5.03839079 9.12722594 4.0625 7.6875 C3.51722656 6.88699219 2.97195313 6.08648438 2.41015625 5.26171875 C1 3 1 3 0 0 Z " fill="#0E60A8" transform="translate(513,643)"/>
<path d="M0 0 C0.66 0.33 1.32 0.66 2 1 C2 1.99 2 2.98 2 4 C-2.22222222 7 -2.22222222 7 -5 7 C-3.70700306 4.11562221 -2.34058637 2.12780579 0 0 Z " fill="#097EDA" transform="translate(464,459)"/>
<path d="M0 0 C0.99 0.99 1.98 1.98 3 3 C2.34 4.32 1.68 5.64 1 7 C0.34 7 -0.32 7 -1 7 C-1.625 4.625 -1.625 4.625 -2 2 C-1.34 1.34 -0.68 0.68 0 0 Z " fill="#085094" transform="translate(450,667)"/>
<path d="M0 0 C1.10844919 3.32534757 0.84454356 5.62182575 0 9 C-0.66 9 -1.32 9 -2 9 C-2.33 9.99 -2.66 10.98 -3 12 C-2.49202991 7.6822542 -1.80317221 3.96697886 0 0 Z " fill="#094D90" transform="translate(528,704)"/>
<path d="M0 0 C3.68754757 0.49831724 5.60490662 1.10067643 8 4 C7.67 4.99 7.34 5.98 7 7 C5.83040013 6.02433888 4.66438823 5.044375 3.5 4.0625 C2.8503125 3.51722656 2.200625 2.97195313 1.53125 2.41015625 C1.0259375 1.94480469 0.520625 1.47945312 0 1 C0 0.67 0 0.34 0 0 Z " fill="#034E93" transform="translate(420,671)"/>
<path d="M0 0 C0.33 0.99 0.66 1.98 1 3 C1.66 3 2.32 3 3 3 C3 3.66 3 4.32 3 5 C2.01 5.33 1.02 5.66 0 6 C-1.32 4.35 -2.64 2.7 -4 1 C-2.68 0.67 -1.36 0.34 0 0 Z " fill="#095AA3" transform="translate(508,633)"/>
<path d="M0 0 C0.66 0 1.32 0 2 0 C2 0.99 2 1.98 2 3 C1.34 3 0.68 3 0 3 C0 4.65 0 6.3 0 8 C-0.99 8.495 -0.99 8.495 -2 9 C-2.125 5.625 -2.125 5.625 -2 2 C-1.34 1.34 -0.68 0.68 0 0 Z " fill="#0671CB" transform="translate(397,541)"/>
<path d="M0 0 C0.66 0 1.32 0 2 0 C2.33 2.97 2.66 5.94 3 9 C0 6 0 6 -0.1875 2.8125 C-0.125625 1.884375 -0.06375 0.95625 0 0 Z " fill="#031734" transform="translate(560,523)"/>
<path d="M0 0 C1.46534385 3.80989402 0.55203911 6.3241179 -1 10 C-1.99 10.495 -1.99 10.495 -3 11 C-2.44894091 7.0507432 -1.61064629 3.65079826 0 0 Z " fill="#0A3464" transform="translate(339,395)"/>
<path d="M0 0 C1.39195915 4.17587745 -0.17676781 6.13474776 -2 10 C-2.66 9.67 -3.32 9.34 -4 9 C-3.35455571 5.51460083 -1.89865603 2.97180943 0 0 Z " fill="#024D95" transform="translate(612,640)"/>
<path d="M0 0 C4.20626034 1.50223584 5.73900021 4.28550034 8 8 C7.01 8 6.02 8 5 8 C2 4.66666667 2 4.66666667 2 2 C1.34 2 0.68 2 0 2 C0 1.34 0 0.68 0 0 Z " fill="#040918" transform="translate(492,622)"/>
<path d="M0 0 C0.66 0 1.32 0 2 0 C1.34 2.97 0.68 5.94 0 9 C-0.66 9 -1.32 9 -2 9 C-2.25 3.375 -2.25 3.375 0 0 Z " fill="#0A7CD5" transform="translate(567,487)"/>
<path d="M0 0 C0.66 0.33 1.32 0.66 2 1 C1.34 3.64 0.68 6.28 0 9 C-0.66 9 -1.32 9 -2 9 C-1.125 2.25 -1.125 2.25 0 0 Z " fill="#0C5DA5" transform="translate(542,477)"/>
<path d="M0 0 C-0.56371414 3.26954202 -1.49962266 4.82575883 -4 7 C-4 6.34 -4 5.68 -4 5 C-4.66 4.67 -5.32 4.34 -6 4 C-2.25 0 -2.25 0 0 0 Z " fill="#0979D1" transform="translate(477,447)"/>
<path d="M0 0 C2.15377564 2.62198774 3.40072174 4.64404172 4 8 C2.35 7.01 0.7 6.02 -1 5 C-0.67 3.35 -0.34 1.7 0 0 Z " fill="#085093" transform="translate(444,655)"/>
<path d="M0 0 C1.98 1.65 3.96 3.3 6 5 C5.67 5.99 5.34 6.98 5 8 C2.20127563 5.47211993 0.54226981 3.79588866 0 0 Z " fill="#030816" transform="translate(503,634)"/>
<path d="M0 0 C0 1.98 0 3.96 0 6 C-0.99 6.33 -1.98 6.66 -3 7 C-3 5.02 -3 3.04 -3 1 C-1 0 -1 0 0 0 Z " fill="#040A18" transform="translate(566,564)"/>
<path d="M0 0 C0.33 0.66 0.66 1.32 1 2 C1.66 2 2.32 2 3 2 C2 4 2 4 1 5 C-0.66617115 5.04063832 -2.33388095 5.042721 -4 5 C-2.68 3.35 -1.36 1.7 0 0 Z " fill="#096FC3" transform="translate(430,493)"/>
<path d="M0 0 C0.66 0.33 1.32 0.66 2 1 C0.12050295 4.57104439 -1.17053157 6.54744301 -5 8 C-4.45773019 4.20411134 -2.79872437 2.52788007 0 0 Z " fill="#0B85E2" transform="translate(576,477)"/>
<path d="M0 0 C0.33 0.66 0.66 1.32 1 2 C3.02463255 2.65213292 3.02463255 2.65213292 5 3 C4.01 3.99 3.02 4.98 2 6 C1.01 5.01 0.02 4.02 -1 3 C-0.67 2.01 -0.34 1.02 0 0 Z " fill="#074684" transform="translate(560,702)"/>
<path d="M0 0 C0.99 0.33 1.98 0.66 3 1 C3 2.32 3 3.64 3 5 C0.525 4.01 0.525 4.01 -2 3 C-1.34 2.01 -0.68 1.02 0 0 Z " fill="#075198" transform="translate(411,659)"/>
<path d="M0 0 C0.66 0.99 1.32 1.98 2 3 C0.625 6.6875 0.625 6.6875 -1 10 C-1.33 10 -1.66 10 -2 10 C-1.85950482 8.52031676 -1.71245174 7.04125484 -1.5625 5.5625 C-1.48128906 4.73878906 -1.40007812 3.91507813 -1.31640625 3.06640625 C-1 1 -1 1 0 0 Z " fill="#030916" transform="translate(443,603)"/>
<path d="M0 0 C0.66 0 1.32 0 2 0 C1.50351065 4.46840411 1.31012244 5.68987756 -2 9 C-1.34 6.03 -0.68 3.06 0 0 Z " fill="#050915" transform="translate(401,525)"/>
<path d="M0 0 C2 1.75 2 1.75 4 4 C4 5.32 4 6.64 4 8 C3.01 7.67 2.02 7.34 1 7 C0.67 4.69 0.34 2.38 0 0 Z " fill="#050916" transform="translate(583,512)"/>
<path d="M0 0 C0.66 0 1.32 0 2 0 C1.01 3.3 0.02 6.6 -1 10 C-1.33 10 -1.66 10 -2 10 C-2.17942163 6.05272412 -2.09350689 3.4019487 0 0 Z " fill="#0E5795" transform="translate(531,507)"/>
<path d="M0 0 C1 3 1 3 -0.4375 6.1875 C-1.2109375 7.5796875 -1.2109375 7.5796875 -2 9 C-2.66 8.67 -3.32 8.34 -4 8 C-4 7.01 -4 6.02 -4 5 C-3.34 5 -2.68 5 -2 5 C-1.34 3.35 -0.68 1.7 0 0 Z " fill="#030918" transform="translate(565,487)"/>
<path d="M0 0 C0.66 0.33 1.32 0.66 2 1 C-0.625 5.875 -0.625 5.875 -4 7 C-3.43628586 3.73045798 -2.50037734 2.17424117 0 0 Z " fill="#097DD9" transform="translate(448,475)"/>
<path d="M0 0 C0.66 0.33 1.32 0.66 2 1 C1.01 3.31 0.02 5.62 -1 8 C-1.33 7.01 -1.66 6.02 -2 5 C-2.66 4.67 -3.32 4.34 -4 4 C-2.68 2.68 -1.36 1.36 0 0 Z " fill="#1379C9" transform="translate(581,472)"/>
<path d="M0 0 C0.33 0 0.66 0 1 0 C1.28571429 8.57142857 1.28571429 8.57142857 -1 12 C-1.92470553 7.28400182 -2.22923777 4.32734391 0 0 Z " fill="#046DC5" transform="translate(544,466)"/>
<path d="M0 0 C1.32 1.32 2.64 2.64 4 4 C3.34 5.32 2.68 6.64 2 8 C0.74335022 5.09399739 0 3.20395416 0 0 Z " fill="#0872C7" transform="translate(536,406)"/>
</svg>
